<svg width="331" height="43" viewBox="0 0 331 43" fill="none" xmlns="http://www.w3.org/2000/svg">
<path d="M40.0224 16.9777C43.8834 13.1167 43.83 6.90974 39.9018 2.98162C35.9737 -0.946528 29.7667 -1.00003 25.9057 2.86097L21.4414 7.32523L35.5582 21.4421L40.0224 16.9777Z" fill="#F5B38A"/>
<path d="M2.86097 25.9052C-1.00003 29.7662 -0.946526 35.9732 2.98163 39.9014C6.90978 43.8295 13.1167 43.883 16.9777 40.022L21.4421 35.5577L7.32525 21.4409L2.86097 25.9052Z" fill="#434081"/>
<path d="M16.9777 2.86292C13.1167 -0.998079 6.90978 -0.944572 2.98162 2.98358C-0.946527 6.9117 -1.00003 13.1187 2.86098 16.9797L7.32527 21.444L21.4421 7.32718L16.9777 2.86292Z" fill="#F5B38A"/>
<path d="M35.5582 21.4409L21.4414 35.5577L25.9057 40.022C29.7667 43.883 35.9736 43.8295 39.9018 39.9014C43.8299 35.9732 43.8834 29.7662 40.0224 25.9052L35.5582 21.4409Z" fill="#434081"/>
<path d="M21.4403 7.32373L7.32349 21.4406L21.4403 35.5573L35.5571 21.4406L21.4403 7.32373Z" fill="#B66BB4"/>
<path d="M58.4827 14.7721H76.723V35.3516H71.2507V19.0942H63.9547V35.3516H58.4827V14.7721ZM90.7231 35.7481C89.2425 35.7481 87.868 35.5234 86.5988 35.074C85.3564 34.5982 84.2599 33.9108 83.3076 33.0121C82.3829 32.0869 81.6559 30.9634 81.1275 29.6417C80.5983 28.2934 80.3341 26.7603 80.3341 25.042C80.3341 23.3238 80.5983 21.8038 81.1275 20.482C81.6559 19.1339 82.3829 18.0104 83.3076 17.1116C84.2599 16.2128 85.3564 15.5388 86.5988 15.0894C87.868 14.6135 89.2425 14.3756 90.7231 14.3756C92.203 14.3756 93.5783 14.6135 94.8467 15.0894C96.1418 15.5388 97.2521 16.2128 98.1776 17.1116C99.129 18.0104 99.8697 19.1339 100.398 20.482C100.953 21.8038 101.231 23.3238 101.231 25.042C101.231 26.7603 100.953 28.2934 100.398 29.6417C99.8697 30.9634 99.129 32.0869 98.1776 33.0121C97.2521 33.9108 96.1418 34.5982 94.8467 35.074C93.5783 35.5234 92.203 35.7481 90.7231 35.7481ZM90.7231 31.3467C92.1503 31.3467 93.3133 30.8313 94.2121 29.8003C95.1109 28.7693 95.5606 27.1832 95.5606 25.042C95.5606 22.9272 95.1109 21.3544 94.2121 20.3234C93.3133 19.2925 92.1503 18.7769 90.7231 18.7769C89.3746 18.7769 88.2383 19.2925 87.3128 20.3234C86.414 21.3544 85.965 22.9272 85.965 25.042C85.965 27.1832 86.414 28.7693 87.3128 29.8003C88.2383 30.8313 89.3746 31.3467 90.7231 31.3467ZM123.907 21.7509L118.553 33.6466H114.708L109.711 21.8302V35.3516H104.834V14.7721H112.011L117.047 26.7074L122.4 14.7721H129.378V35.3516H123.907V21.7509ZM143.386 35.7481C141.905 35.7481 140.531 35.5234 139.262 35.074C138.019 34.5982 136.923 33.9108 135.971 33.0121C135.046 32.0869 134.319 30.9634 133.79 29.6417C133.261 28.2934 132.997 26.7603 132.997 25.042C132.997 23.3238 133.261 21.8038 133.79 20.482C134.319 19.1339 135.046 18.0104 135.971 17.1116C136.923 16.2128 138.019 15.5388 139.262 15.0894C140.531 14.6135 141.905 14.3756 143.386 14.3756C144.867 14.3756 146.241 14.6135 147.51 15.0894C148.805 15.5388 149.916 16.2128 150.84 17.1116C151.792 18.0104 152.533 19.1339 153.061 20.482C153.616 21.8038 153.893 23.3238 153.893 25.042C153.893 26.7603 153.616 28.2934 153.061 29.6417C152.533 30.9634 151.792 32.0869 150.84 33.0121C149.916 33.9108 148.805 34.5982 147.51 35.074C146.241 35.5234 144.867 35.7481 143.386 35.7481ZM143.386 31.3467C144.813 31.3467 145.976 30.8313 146.875 29.8003C147.774 28.7693 148.224 27.1832 148.224 25.042C148.224 22.9272 147.774 21.3544 146.875 20.3234C145.976 19.2925 144.813 18.7769 143.386 18.7769C142.037 18.7769 140.901 19.2925 139.976 20.3234C139.077 21.3544 138.628 22.9272 138.628 25.042C138.628 27.1832 139.077 28.7693 139.976 29.8003C140.901 30.8313 142.037 31.3467 143.386 31.3467ZM184.698 30.9899H187.791V41.22H183.033L182.715 35.3516H157.497V14.7721H162.969V30.9899H168.362V14.7721H173.873V30.9899H179.187V14.7721H184.698V30.9899ZM208.634 28.0556C208.634 29.2451 208.41 30.3025 207.961 31.2277C207.538 32.1265 206.943 32.8931 206.176 33.5276C205.409 34.1356 204.484 34.5982 203.4 34.9154C202.343 35.2062 201.18 35.3516 199.911 35.3516H191.069V14.7721H196.58V21.0372H199.99C202.713 21.0372 204.828 21.632 206.335 22.8215C207.868 23.9846 208.634 25.7293 208.634 28.0556ZM196.58 25.2006V31.2277H199.277C200.387 31.2277 201.272 31.0031 201.933 30.5537C202.621 30.0779 202.964 29.298 202.964 28.2142C202.964 27.1568 202.647 26.3902 202.013 25.9143C201.405 25.4385 200.506 25.2006 199.316 25.2006H196.58Z" fill="#434081"/>
<path d="M224.227 35.7481C222.694 35.7481 221.372 35.4176 220.262 34.7568C219.178 34.0695 218.293 33.1575 217.605 32.0208V42.37H212.133V14.7721H217.249L217.526 18.1425C218.213 16.953 219.112 16.0278 220.222 15.3669C221.333 14.706 222.681 14.3756 224.267 14.3756C225.483 14.3756 226.633 14.6003 227.716 15.0497C228.827 15.4726 229.792 16.1335 230.611 17.0323C231.457 17.9047 232.118 19.0149 232.594 20.3631C233.07 21.6848 233.308 23.2445 233.308 25.042C233.308 26.866 233.056 28.4521 232.554 29.8003C232.078 31.122 231.431 32.2323 230.611 33.1311C229.792 34.0034 228.827 34.6642 227.716 35.1136C226.606 35.5366 225.443 35.7481 224.227 35.7481ZM222.681 31.3467C224.161 31.3467 225.364 30.8313 226.289 29.8003C227.215 28.7693 227.677 27.1832 227.677 25.042C227.677 22.9272 227.215 21.3544 226.289 20.3234C225.364 19.266 224.175 18.7373 222.721 18.7373C221.24 18.7373 220.011 19.266 219.033 20.3234C218.055 21.3544 217.566 22.9272 217.566 25.042C217.566 27.1832 218.055 28.7693 219.033 29.8003C220.011 30.8313 221.227 31.3467 222.681 31.3467ZM236.248 21.5923C236.248 19.3982 237.027 17.7196 238.587 16.5564C240.173 15.3669 242.315 14.7721 245.011 14.7721H253.417V35.3516H247.945V28.7296H245.685L241.165 35.3516H235.217L240.649 27.6194C239.248 27.1964 238.164 26.4959 237.398 25.5179C236.631 24.5133 236.248 23.2048 236.248 21.5923ZM247.945 24.5662V18.9356H245.606C244.495 18.9356 243.597 19.1471 242.909 19.57C242.248 19.993 241.917 20.6935 241.917 21.6716C241.917 22.6761 242.222 23.4163 242.83 23.8921C243.438 24.3415 244.35 24.5662 245.566 24.5662H247.945ZM257.976 30.9899C258.479 30.4347 258.889 29.7078 259.206 28.809C259.549 27.8838 259.814 26.7603 259.999 25.4385C260.211 24.1168 260.369 22.5836 260.475 20.8389C260.58 19.0677 260.673 17.0455 260.752 14.7721H276.573V30.9899H279.626V41.2201H274.868L274.551 35.3516H261.228L260.911 41.2201H256.153V30.9899H257.976ZM271.062 30.9899V19.0942H265.392C265.286 21.9227 265.088 24.3019 264.797 26.2316C264.533 28.1349 264.11 29.721 263.528 30.9899H271.062ZM291.654 35.7481C290.174 35.7481 288.799 35.5234 287.531 35.074C286.288 34.5982 285.191 33.9109 284.239 33.0121C283.314 32.0869 282.587 30.9634 282.059 29.6417C281.53 28.2935 281.265 26.7603 281.265 25.042C281.265 23.3238 281.53 21.8038 282.059 20.482C282.587 19.1339 283.314 18.0104 284.239 17.1116C285.191 16.2128 286.288 15.5388 287.531 15.0894C288.799 14.6135 290.174 14.3756 291.654 14.3756C293.135 14.3756 294.509 14.6135 295.778 15.0894C297.074 15.5388 298.184 16.2128 299.109 17.1116C300.061 18.0104 300.801 19.1339 301.329 20.482C301.884 21.8038 302.162 23.3238 302.162 25.042C302.162 26.7603 301.884 28.2935 301.329 29.6417C300.801 30.9634 300.061 32.0869 299.109 33.0121C298.184 33.9109 297.074 34.5982 295.778 35.074C294.509 35.5234 293.135 35.7481 291.654 35.7481ZM291.654 31.3467C293.082 31.3467 294.245 30.8313 295.144 29.8003C296.043 28.7693 296.492 27.1832 296.492 25.042C296.492 22.9272 296.043 21.3544 295.144 20.3234C294.245 19.2925 293.082 18.777 291.654 18.777C290.306 18.777 289.169 19.2925 288.244 20.3234C287.345 21.3544 286.896 22.9272 286.896 25.042C286.896 27.1832 287.345 28.7693 288.244 29.8003C289.169 30.8313 290.306 31.3467 291.654 31.3467ZM324.838 21.7509L319.485 33.6466H315.639L310.642 21.8302V35.3516H305.765V14.7721H312.942L317.978 26.7074L323.331 14.7721H330.31V35.3516H324.838V21.7509Z" fill="#B66BB4"/>
</svg>
