<svg fill="#111" xmlns="http://www.w3.org/2000/svg" xmlns:xlink="http://www.w3.org/1999/xlink" version="1.1" x="0px" y="0px" viewBox="0 0 35 35" enable-background="new 0 0 35 35" xml:space="preserve"><g><path d="M28.5,13.2c0.8-12.6-11-11.6-11-11.6s-11.7-1-11,11.6c0,0,0.6,2.4,0,5.1l1.3,2.6c1.6,3.2,0.6,5.2,2.2,7.1   c0,0,3.2,5.9,7,5.6c0.3,0,0.7,0,1,0c3.8,0.3,7-5.6,7-5.6c1.6-1.8,0.7-4,2.2-7.1l1.3-2.6C27.9,15.6,28.5,13.2,28.5,13.2z M19.8,9.3   c1.3-2.1,3.7-2.5,3.8-2.6l0,0c0.3-0.1,0.5,0.1,0.6,0.4S24.2,7.6,24,7.7c-1,0.2-2.5,0.1-4,1.7c-0.3,0.4-0.5,0.6-0.5,0.6   S19.6,9.7,19.8,9.3z M17.5,14.7c0,0,3.6,3.4,2.2,5.9c0,0-1,1.1-2.2-0.3c-1.2,1.5-2.2,0.3-2.2,0.3C13.9,18.1,17.5,14.7,17.5,14.7z    M19.3,25.1c-0.5,0-0.8-0.1-0.8-0.6v-0.1c0,0.5-0.4,0.7-0.9,0.7c-0.5,0-0.9-0.1-0.9-0.7v0.1c0,0.5-0.4,0.6-0.8,0.6   c-0.4,0-0.8-0.1-0.8-0.6c0,0,0,0,0,0v0.1c0,0.4-0.3,0.5-0.6,0.5c-0.4,0-0.6-0.1-0.6-0.5c0-0.4,0.3-1.3,0.6-1.3   c0.3,0,0.6,0.7,0.6,1.1c0-0.5,0.4-1.6,0.8-1.6c0.4,0,0.8,1.1,0.8,1.6c0-0.6,0.4-1.9,0.9-1.9c0.5,0,0.9,1.3,0.9,1.9   c0-0.5,0.4-1.6,0.8-1.6c0.5,0,0.8,1.1,0.8,1.6c0.1-0.4,0.3-1.1,0.6-1.1c0.4,0,0.6,0.9,0.6,1.3c0,0.4-0.3,0.5-0.6,0.5   c-0.4,0-0.6-0.1-0.6-0.5v-0.1c0,0,0,0,0,0C20.1,24.9,19.7,25.1,19.3,25.1z M11.2,6.7c0.8,0.1,2.9,1,4,2.6c0.3,0.4,0.4,0.7,0.4,0.7   S15.4,9.8,15,9.4c-1.3-1.4-2.7-1.5-3.9-1.7c-0.3,0-0.5-0.3-0.5-0.5C10.7,6.9,10.9,6.7,11.2,6.7z M11.5,27.7c-1-1-1.2-5.1-0.6-5.1   s0.9-0.7,0.9-0.7l0.2,0.9c-0.5,0.1-0.5,0.9-0.5,0.9c-0.2,0.6,0.5,2.4,0.5,2.4C12,28.1,11.5,27.7,11.5,27.7z M9.9,15.3   c-0.3-3.8,2.7-4,3.5-4c0.1,0,0.2,0,0.3,0.1c1.5,0.7,1.4,4.1-1.1,4.8C10,16.9,9.9,15.3,9.9,15.3z M12.6,24.7c0-0.3,0.2-1,0.5-1   c0.3,0,0.5,0.7,0.5,1s-0.2,0.4-0.5,0.4C12.9,25.1,12.6,25,12.6,24.7z M13.6,27.2c-0.3,0-0.5-0.7-0.5-1c0-0.3,0.2-0.4,0.5-0.4   c0.3,0,0.5,0.1,0.5,0.4C14,26.5,13.8,27.2,13.6,27.2z M20.3,27.6c-0.3,0-0.6-0.8-0.6-1.2c0,0.4-0.3,1.4-0.7,1.4   c-0.4,0-0.7-0.9-0.7-1.3c0,0.5-0.4,1.6-0.8,1.6c-0.4,0-0.8-1.1-0.8-1.6c0,0.4-0.3,1.3-0.7,1.3c-0.4,0-0.7-1-0.7-1.4   c0,0.4-0.3,1.2-0.6,1.2c-0.4,0-0.6-0.9-0.6-1.3c0-0.4,0.3-0.5,0.6-0.5c0.3,0,0.6,0.1,0.6,0.5v0.1c0-0.4,0.3-0.5,0.7-0.5   c0.4,0,0.7,0.1,0.7,0.5v0.1c0-0.5,0.4-0.6,0.8-0.6c0.4,0,0.8,0.1,0.8,0.6v-0.1c0-0.4,0.3-0.5,0.7-0.5c0.4,0,0.7,0.1,0.7,0.5v-0.1   c0-0.4,0.3-0.5,0.6-0.5c0.4,0,0.6,0.1,0.6,0.5C21,26.7,20.7,27.6,20.3,27.6z M21.4,27.2c-0.3,0-0.5-0.7-0.5-1   c0-0.3,0.2-0.4,0.5-0.4c0.3,0,0.5,0.1,0.5,0.4C21.9,26.5,21.7,27.2,21.4,27.2z M21.9,25.1c-0.3,0-0.5-0.1-0.5-0.4s0.2-1,0.5-1   c0.3,0,0.5,0.7,0.5,1S22.1,25.1,21.9,25.1z M23.5,27.7c0,0-0.6,0.3-0.4-1.5c0,0,0.7-1.8,0.5-2.4c0,0,0-0.8-0.5-0.9l0.2-0.9   c0,0,0.3,0.7,0.9,0.7S24.5,26.8,23.5,27.7z M25.1,15.3c0,0-0.1,1.6-2.7,0.9c-2.5-0.7-2.6-4.2-1.1-4.8c0.1,0,0.2-0.1,0.3-0.1   C22.4,11.3,25.4,11.4,25.1,15.3z"></path></g></svg>
