<?xml version="1.0" encoding="utf-8"?>
<svg width="300" height="86" version="1.1" id="Шар_1" xmlns="http://www.w3.org/2000/svg" xmlns:xlink="http://www.w3.org/1999/xlink" x="0px" y="0px"
	 viewBox="0 0 111 31.8" style="enable-background:new 0 0 111 31.8;" xml:space="preserve">
<g id="XMLID_197_">
	<path id="XMLID_198_" d="M27.4,0.6v30.7h-8V19.1H8v12.2H0V0.6h8v11.4h11.4V0.6H27.4z"/>
	<path id="XMLID_200_" d="M63.4,15.9C63.4,25,58,31.8,48,31.8c-9.9,0-15.4-6.8-15.4-15.9C32.7,6.8,38.1,0,48,0
		C58,0,63.4,6.8,63.4,15.9z M55.2,15.9c0-5.2-2.4-8.9-7.2-8.9s-7.2,3.7-7.2,8.9c0,5.2,2.4,8.9,7.2,8.9S55.2,21.1,55.2,15.9z"/>
	<path id="XMLID_203_" d="M84.9,0.6h7.7v11.5H98l4.6-11.5h8l-6.1,15.1l6.5,15.6h-8l-4.9-12h-5.4v12h-7.7v-12h-5.4l-4.9,12h-8
		l6.5-15.6L67,0.6h8l4.6,11.5h5.3V0.6z"/>
</g>
</svg>
