<svg xmlns="http://www.w3.org/2000/svg" width="70" height="49" viewBox="0 0 70 49" fill="none">
<path fill-rule="evenodd" clip-rule="evenodd" d="M18.0593 12.7024C12.4158 12.7027 6.83798 15.3261 3.36074 20.4899V20.4899C0.540619 24.5459 -0.359647 29.3561 0.464069 33.8537V33.8537L0.999275 36.2246L3.24753 41.0592L6.51859 37.3747L10.7681 35.4378L9.68801 32.1811C9.29465 30.0333 9.725 27.7347 11.0723 25.7965V25.7965C12.4203 23.8586 14.4296 22.647 16.5891 22.255V22.255C16.6425 22.2458 16.6965 22.2362 16.7512 22.2275V22.2275L17.3006 22.1597L17.738 22.128L18.1815 22.119L18.6228 22.1322L19.0702 22.169L19.5076 22.2278L19.9415 22.3088L20.3754 22.4134L20.3847 22.416L20.7736 22.5315L20.8498 22.5565L21.1322 22.6563C21.2017 22.6826 21.2712 22.7091 21.3403 22.737V22.737L21.4593 22.7862C21.9926 23.0106 22.5108 23.2922 23.0058 23.6326V23.6326C23.7661 24.1562 24.4152 24.7798 24.9475 25.4733V25.4733L24.953 25.4688L25.0408 25.5808L25.2997 25.9491L25.5342 26.3226L25.7503 26.7098L25.9455 27.1085L26.1154 27.5027L34.8212 23.7936L34.6446 23.3827L26.849 26.7043L34.4625 22.9872L34.2271 22.5066L28.1771 25.4602L34.0663 22.2L33.7607 21.6534L29.3987 24.0678L33.6308 21.4326L33.2506 20.8269L30.4823 22.5507L33.158 20.6867L32.6955 20.0294L31.4481 20.8986L32.6501 19.9661C28.9098 15.0995 23.4554 12.7024 18.0599 12.7024V12.7024H18.0593ZM26.1282 27.5386L26.252 27.8739L35.1386 24.6157L35.0147 24.2803L26.1282 27.5386ZM26.2926 27.9949L26.3721 28.2509L35.4156 25.4525L35.3361 25.1965L26.2926 27.9949Z" fill="url(#paint0_linear)"/>
<path fill-rule="evenodd" clip-rule="evenodd" d="M12.0823 48.0255L18.1879 44.4805L13.9725 42.6373L12.0823 48.0255Z" fill="#B4E2EF"/>
<path fill-rule="evenodd" clip-rule="evenodd" d="M6.79932 45.0682L12.1784 47.9882L10.375 43.1158L6.79932 45.0682Z" fill="#7FD1E3"/>
<path fill-rule="evenodd" clip-rule="evenodd" d="M10.3716 39.3549L14.9141 39.3456L10.7141 35.5175L10.3716 39.3549Z" fill="#8BD4E5"/>
<path fill-rule="evenodd" clip-rule="evenodd" d="M10.2858 39.3057L10.3588 43.187L14.8511 39.2551L10.2858 39.3057Z" fill="#99D8E8"/>
<path fill-rule="evenodd" clip-rule="evenodd" d="M0.502925 28.6783L1.54375 30.8056L0.351112 31.6687L0.502925 28.6783ZM2.49412 32.5865L2.49446 32.5535L0.976942 35.9487L0.182495 31.8185L2.49463 32.5364L2.51921 30.1088L5.00226 30.8064L2.49412 32.5865ZM4.00988 35.7989L3.19356 40.9813L0.849136 36.2613L4.00988 35.7989Z" fill="#39B9D5"/>
<path fill-rule="evenodd" clip-rule="evenodd" d="M9.63604 32.4103L9.637 29.4174L8.69074 30.1265L9.63604 32.4103ZM6.86587 33.3137L5.07563 30.8222L6.96397 29.6549L7.06368 33.2405L6.86587 33.3137ZM2.56164 32.5747L1.54302 30.8057L0.107544 31.8419L2.56164 32.5747ZM10.6077 35.5001L6.45566 37.3798L7.00598 33.5625L10.6077 35.5001ZM10.2998 39.3629L10.3662 43.1181L10.404 43.1449L6.88435 45.0774L7.26003 40.9254L7.295 40.95L10.2998 39.3629ZM2.59657 32.5666L4.01049 35.7125L4.96929 30.8546L2.59657 32.5666Z" fill="#4DC6E1"/>
<path fill-rule="evenodd" clip-rule="evenodd" d="M4.16261 28.6237L2.51904 30.1088L5.07349 30.8086L4.16261 28.6237ZM1.5429 30.8057L0.502075 28.734L2.51907 30.1087L1.5429 30.8057ZM6.5314 37.3748L4.01008 35.8269L3.1825 40.945L6.46474 37.4458L7.26017 41.0394L10.3225 39.3239L6.51229 37.3951L6.5314 37.3748ZM7.14916 33.5688L6.9922 29.6267L8.69077 30.1266L7.14916 33.5688ZM7.12143 33.6351L5.00955 30.8418L4.00764 35.7439L7.12143 33.6351ZM0.842476 36.2464L2.53236 32.416L4.03313 35.8048L0.842476 36.2464Z" fill="#65CAE2"/>
<path fill-rule="evenodd" clip-rule="evenodd" d="M7.16119 33.6349L9.6362 32.4455L10.713 35.4849L7.16119 33.6349ZM6.46632 37.3977L3.87842 35.8255L7.00989 33.6572L6.46632 37.3977Z" fill="#79CFE5"/>
<path fill-rule="evenodd" clip-rule="evenodd" d="M10.3211 39.3526L6.51839 37.3747L10.6354 35.5338L10.3211 39.3526ZM3.38818 41.1032L7.28966 40.9688L6.9127 45.0136L3.38818 41.1032Z" fill="#75CEE6"/>
<path fill-rule="evenodd" clip-rule="evenodd" d="M65.9852 1L48.0217 13.0032L47.958 12.9779L47.9201 13.0714L47.7683 13.1725L47.8374 13.2746L42.0415 27.512L26.4272 35.7926L26.4794 35.8902L26.4195 35.7971L20.8153 39.3469L14.9013 39.1968L10.7676 35.4378L9.74161 32.3757L9.63579 32.4102L9.58465 32.3117L7.19713 33.5347L7.23605 33.6102L7.19713 33.6851L7.12315 33.6726L7.11125 33.6563L7.18555 33.6038L7.18394 33.6013H7.18491L7.07555 29.6515L6.85298 29.6576L6.95397 33.2803L5.15666 30.7699L5.08622 30.8195L5.07078 30.8166L5.09619 30.7277L2.54978 30.0019L2.48867 30.2154L4.73885 30.8566L2.51408 32.4448L0.254566 31.7565L0.248776 31.7213L0.176408 31.7325L0.158074 31.727L0.15518 31.736L0.0294189 31.7558L0.746029 36.1744L0.735094 36.1984L0.750854 36.2054L0.751176 36.207L0.753427 36.2067L0.756643 36.208L0.776907 36.3626L0.844451 36.3536L3.11168 41.0134L3.12455 41.0077L3.12808 41.1718L3.24484 41.1686L6.74652 45.0806L6.70792 45.152L12.0941 48.0506L12.1471 47.953V47.9533L12.1378 48.0637L20.5953 48.7885L20.6043 48.6781L20.6471 48.7805L30.4365 44.703L30.3934 44.6006L30.4686 44.6822L38.47 37.3744L38.4546 37.361L66.1297 1.1664V1.16608L66.1354 1.15872L66.0473 1.09184L65.9852 1ZM48.102 13.2164L65.3669 1.68003L42.4721 27.0455L48.102 13.2164ZM42.2261 27.6499L64.3047 3.18877L38.6926 36.6845L42.2261 27.6499ZM41.7555 27.9139L36.1156 35.6365L26.9312 35.7757L41.7555 27.9139ZM36.3725 35.6611L41.7143 28.3485L38.2551 37.1923L36.4459 35.6595L36.3735 35.7433L36.3725 35.6611ZM5.07139 31.033L6.9028 33.591L4.1515 35.5632L5.07139 31.033ZM2.63466 32.6323L4.83981 31.0576L3.94341 35.4707L2.63466 32.6323ZM0.294739 31.9997L2.32267 32.6176L0.911641 35.8019L0.294739 31.9997ZM7.40324 33.6784L9.57141 32.5677L10.4788 35.2752L7.40324 33.6784ZM2.47609 32.8186L3.82086 35.7357L1.01907 36.1075L2.47609 32.8186ZM7.18256 33.8134L10.4163 35.4922L6.59975 37.1891L7.18256 33.8134ZM4.17879 35.8163L6.95421 33.8266L6.373 37.1926L4.17879 35.8163ZM6.71139 37.3818L10.5434 35.6781L10.2253 39.1786L6.71139 37.3818ZM10.7618 35.7318L14.5414 39.1689L10.4431 39.239L10.7618 35.7318ZM35.9898 35.8595L25.8174 42.4422L26.5835 35.9603L26.6781 35.9101L26.6794 36.0006L35.9898 35.8595ZM36.3966 35.9078L38.1345 37.3798L31.0076 43.8889L36.3966 35.9078ZM1.07662 36.3229L3.85268 35.9546L3.15505 40.5942L1.07662 36.3229ZM4.06949 36.0096L6.28365 37.3987L3.377 40.6169L4.06949 36.0096ZM21.0507 39.4602L26.3413 36.1088L25.5896 42.4711L21.0507 39.4602ZM25.9171 42.6419L35.9776 36.1315L30.3522 44.4637L25.9171 42.6419ZM7.32763 40.8663L6.61359 37.5805L10.0847 39.3555L7.33471 40.8707L7.32763 40.8663ZM6.3924 37.6102L7.09614 40.848L3.38154 40.944L6.3924 37.6102ZM10.4337 39.4605L14.589 39.3894L10.4823 42.9062L10.4337 39.4605ZM14.9006 39.4182L20.3678 39.5568L14.1335 42.43L14.9006 39.4182ZM7.53609 41.0125L10.2128 39.5382L10.2604 42.9286L7.53609 41.0125ZM20.8876 39.6195L25.4066 42.6163L18.4216 44.3257L20.8876 39.6195ZM14.6077 39.6666L13.883 42.5117L10.7403 42.9786L14.6077 39.6666ZM14.2348 42.6275L20.5962 39.6957L18.164 44.3376L14.2348 42.6275ZM3.53653 41.1613L6.96841 41.0723L7.12248 41.2403L6.79698 44.8039L3.53653 41.1613ZM7.35343 41.1552L10.1658 43.1335L7.01443 44.8701L7.35343 41.1552ZM10.5264 43.2342L13.8068 42.7472L12.1426 47.6202L10.5264 43.2342ZM14.0306 42.7802L17.9688 44.4941L12.3472 47.711L14.0306 42.7802ZM25.7121 42.7971L30.1035 44.6013L20.9847 48.3994L25.7121 42.7971ZM18.3892 44.5619L25.3748 42.8525L20.6226 48.4845L18.3892 44.5619ZM7.06745 45.0935L10.3147 43.3043L11.9409 47.7162L7.06745 45.0935ZM12.5099 47.8733L18.1733 44.6317L20.4032 48.5494L12.5099 47.8733Z" fill="#33C2DF"/>



<defs>
<linearGradient id="paint0_linear" x1="6.02137" y1="31.8306" x2="33.7604" y2="29.7466" gradientUnits="userSpaceOnUse">
<stop stop-color="#45BFE0"/>
<stop offset="0.502899" stop-color="#71BB73"/>
<stop offset="1" stop-color="#66B42F"/>
</linearGradient>
</defs>
</svg>