<?xml version="1.0" encoding="UTF-8"?>
<svg width="544px" height="469px" viewBox="0 0 544 469" xmlns="http://www.w3.org/2000/svg" xmlns:xlink="http://www.w3.org/1999/xlink" version="1.1">
 <!-- Generated by Pixelmator Pro 1.4.1 -->
 <path id="path" d="M512.3 108.8 C510.6 108.6 508.9 108.5 507.2 108.5 506.1 101.2 502 93.1 497.2 88.7 491.4 83.4 484.9 80.1 477.1 79.1 469.6 78.1 461.3 79.1 454.8 83.3 446.7 88.5 442.3 95.3 438.7 104.2 436.8 108.9 435 113.6 433.1 118.3 433.4 116.4 433.7 114.5 434 112.6 436.1 98.4 438.3 84.1 440.4 69.9 440.4 69.7 440.5 69.5 440.5 69.3 442 59.6 442.1 51.1 437 42.3 432.8 35 424.4 28.1 416.1 26.2 407.4 24.2 398.7 25.3 391.4 28.9 386.9 22.4 379.4 16.6 371.8 14.9 362.8 12.9 352.8 13.3 344.8 18.4 336.7 23.6 332.2 30.4 328.7 39.3 327.4 42.6 326.1 45.9 324.8 49.3 325.1 47.9 325.3 46.4 325.6 45 325.6 44.8 325.7 44.6 325.7 44.3 327.4 34.9 327.2 25.9 322.2 17.3 318 10 309.6 3.1 301.3 1.2 281.7 -3.3 264.7 7.1 258.2 25.6 253.6 38.7 249 51.9 244.4 65 235.5 90.3 226.7 115.5 217.8 140.8 219.5 124.4 221.2 108 222.9 91.6 224.5 76 226.6 60.3 227.7 44.6 227.7 44.4 227.7 44.2 227.8 43.9 228.6 35.9 223.4 24.5 217.5 19.2 211.7 13.9 205.2 10.6 197.4 9.6 179.4 7.2 165 18.1 159 34.7 158.3 36.6 157.6 38.5 157 40.4 156.4 39.1 155.8 37.7 155 36.4 150.8 29.1 142.4 22.2 134.1 20.3 114.6 15.9 97.4 26.2 91 44.7 81 73.8 71 102.8 61 131.9 45.1 178.2 29.2 224.5 13.3 270.8 9.7 281.4 6 292 2.4 302.6 -3.6 319.9 9.2 341.6 26.8 345.7 31.8 346.8 36.6 347 41.2 346.3 39.5 356.8 37.7 367.3 36 377.7 34.4 387.3 34.5 396 39.5 404.7 43.7 412 52.1 418.9 60.4 420.8 80.1 425.3 96.8 414.8 103.5 396.4 107.6 385 111.7 373.6 115.8 362.2 120.1 350.1 124.5 338 128.8 325.9 126.8 345.2 124.8 364.4 122.9 383.7 121.3 399.3 119.2 415 118.1 430.7 118.1 430.9 118.1 431.1 118 431.4 117.2 439.4 122.4 450.8 128.3 456.1 134.1 461.4 140.6 464.7 148.4 465.7 166.3 468.1 181 457.3 186.8 440.6 189.1 434.1 191.4 427.6 193.7 421.1 194 421.7 194.3 422.3 194.6 422.8 198.8 430.1 207.2 437 215.5 438.9 224.5 440.9 234.5 440.5 242.5 435.4 250.6 430.2 255.1 423.4 258.6 414.5 260.7 409.2 262.7 403.9 264.8 398.5 263.3 407.1 261.7 415.6 260.3 424.2 260.3 424.4 260.2 424.6 260.2 424.8 258.5 434.3 258.7 443.2 263.7 451.8 267.9 459.1 276.3 466 284.6 467.9 303.5 472.2 322 462.2 327.7 443.5 328.4 441.2 329.1 438.8 329.8 436.5 334 440.6 339.3 443.8 344.6 445 353.6 447 363.6 446.6 371.6 441.5 379.7 436.3 384.1 429.5 387.7 420.6 396 399.7 404.4 378.9 412.7 358 L417.6 358.6 C417.1 364.9 416.6 371.2 416 377.5 415 389.8 414 402 413 414.3 412.3 422.4 417.3 433.6 423.3 439 429.1 444.3 435.6 447.6 443.4 448.6 459.8 450.8 478 440.6 481.8 423.5 483.6 415.3 485.4 407.1 487.3 398.8 492.8 402.4 499.2 404.5 506 404.2 525.1 403.3 540.8 388.8 541 369.2 541.2 343.8 541.5 318.5 541.7 293.1 542.1 252.5 542.5 211.9 542.8 171.3 542.9 162 543 152.7 543.1 143.4 542.8 125.7 529.2 111 512.3 108.8 Z" fill="#000000" fill-opacity="1" stroke="none"/>
</svg>
