<?xml version="1.0" encoding="UTF-8"?>
<svg width="563px" height="490px" viewBox="0 0 563 490" xmlns="http://www.w3.org/2000/svg" xmlns:xlink="http://www.w3.org/1999/xlink" version="1.1">
 <!-- Generated by Pixelmator Pro 1.4.1 -->
 <path id="path" d="M558.7 134 C554.8 127.3 547 120.8 539.3 119.1 532.4 117.5 524.8 117.6 518.3 120.3 518.3 118.1 518.3 115.9 518.3 113.8 518.4 98.4 518.8 83 518.5 67.6 518.5 67.4 518.5 67.1 518.5 66.9 518.6 50.7 506.1 37.1 490.3 35 483.4 34.1 475.6 35 469.6 38.9 463.7 42.7 457.2 48.9 455.2 56 450.7 43.3 439.2 33.1 424.8 33.7 406.2 34.5 393.5 48 392.3 66.2 391.5 78.4 390.7 90.6 389.8 102.8 388.6 121.3 387.3 139.8 386.1 158.3 382.6 137.5 379 116.7 375.5 95.9 372.9 80.7 370.9 65.3 367.7 50.2 367.7 50 367.6 49.8 367.6 49.5 366.4 42.2 359 33.4 352.7 30.1 346.1 26.6 339.4 25.3 332 26.2 316.4 28.3 303.6 41.8 303.8 58.1 304 70.2 304.2 82.3 304.3 94.4 304.3 95.3 304.3 96.1 304.3 97 302.3 87.3 300.3 77.7 297.9 68.1 297.9 67.9 297.8 67.7 297.8 67.5 294.4 51.7 277.3 42.2 262.1 44.2 256.1 45 250.3 47.7 245.5 51.6 244.7 47.6 243.8 43.6 242.9 39.6 242.8 39.4 242.8 39.1 242.8 38.9 241.4 31.6 234.4 22.9 227.9 19.5 221.3 16 214.6 14.7 207.2 15.6 191.8 17.7 178.4 31.3 179 47.5 179.4 59.7 179.9 71.9 180.3 84.1 181.1 106 181.9 127.9 182.7 149.9 175.2 123.6 167.7 97.3 160.1 71 155.7 55.4 151.5 39.8 146.7 24.3 146.6 24.1 146.6 23.9 146.5 23.6 141.8 7.3 123.3 -4.5 106.5 0.9 98.6 3.4 91 8.3 87.1 15.8 86 18.4 84.9 21 83.8 23.6 82.3 29.4 82.3 35.1 83.8 40.9 85.7 55 87.7 69.2 89.6 83.3 90.8 92.2 92.1 101.2 93.3 110.1 86.9 98.2 74.4 91 60.3 92.9 53.5 93.8 46.4 96.6 41.6 101.8 36.2 107.7 31.1 116.4 32.1 124.8 35.8 157.3 39.6 189.8 43.3 222.3 37.1 220.2 29.9 219.7 24.1 221.6 8.2 226.7 -4.5 244.4 1.4 261.6 9.3 284.6 17.2 307.6 25.1 330.6 37.7 367.2 50.2 403.9 62.8 440.5 65.7 448.9 68.5 457.2 71.4 465.6 76.7 481 90.5 491.1 107.1 488.9 113.9 488 121 485.2 125.8 480 131.2 474.1 136.3 465.4 135.3 457 134.5 450.4 133.8 443.8 133 437.1 136 446.4 139 455.7 142.2 465 142.3 465.2 142.3 465.4 142.4 465.6 147.7 481.7 165.1 493.9 182.4 488.3 190.3 485.8 197.9 480.9 201.8 473.4 202.9 470.8 204 468.2 205.1 465.6 206.6 459.8 206.6 454.1 205.1 448.3 204.7 445.7 204.4 443.2 204 440.6 210.8 446.3 219.9 449.1 229.2 447.9 239.2 446.6 248.4 440.3 253.4 431.6 254.8 438.7 256.2 445.8 257.8 452.8 257.9 453 257.9 453.3 257.9 453.5 259.3 460.8 266.3 469.5 272.8 472.9 279.4 476.4 286.1 477.7 293.5 476.8 307.4 474.9 320.4 463.2 321.6 448.7 328.5 453.7 337.4 456 345.7 454.9 354.8 453.7 363 448.5 368.2 441.2 368.2 441.4 368.3 441.5 368.3 441.7 368.3 441.9 368.4 442.1 368.4 442.4 369.6 449.7 377 458.5 383.3 461.8 389.9 465.3 396.6 466.6 404 465.7 420.6 463.5 431.1 450.1 432.2 433.8 432.2 433.2 432.3 432.6 432.3 432 433.5 432.3 434.6 432.5 435.9 432.7 440.9 433.4 446.3 433.1 451.1 431.4 451.1 436 451.1 440.5 451.2 445.1 451.2 445.3 451.2 445.6 451.2 445.8 451.1 462 463.6 475.6 479.4 477.7 493.9 479.6 512.5 470.4 515.1 454.4 520.3 421.2 525.6 387.9 530.8 354.7 539.2 301.6 547.5 248.4 555.9 195.3 557.8 183.2 559.7 171 561.6 158.9 563.4 150.1 563.5 142.1 558.7 134 Z" fill="#000000" fill-opacity="1" stroke="none"/>
</svg>
