<?xml version="1.0" encoding="UTF-8"?>
<svg width="544px" height="469px" viewBox="0 0 544 469" xmlns="http://www.w3.org/2000/svg" xmlns:xlink="http://www.w3.org/1999/xlink" version="1.1">
 <!-- Generated by Pixelmator Pro 1.4.1 -->
 <path id="path" d="M507.6 386.5 C507.8 386.5 508.1 386.5 508.3 386.5 517.6 385.9 526.3 383 533 376.2 539.1 370.1 543.6 360.2 543.3 351.5 542.5 334.5 532 322.1 516.8 317.9 522.8 316.4 528.3 313.7 533 309 539.1 302.9 543.6 293 543.3 284.3 542.4 264.5 527.9 250.4 508.3 249.3 492.9 248.5 477.5 247.6 462 246.8 444.6 245.9 427.2 244.9 409.8 244 426.1 241.8 442.3 239.5 458.6 237.3 477.3 234.7 496.3 232.8 514.9 229.6 515.2 229.6 515.4 229.5 515.7 229.5 523.4 228.4 533.1 220 536.6 213.4 540.3 206.3 541.8 199 540.8 191.1 538.5 173.6 524 161.4 506.4 160.8 501.4 160.6 496.5 160.5 491.5 160.3 494.1 160 496.7 159.7 499.3 159.3 499.5 159.3 499.8 159.2 500 159.2 509.6 158 517.6 156.1 524.7 148.9 530.8 142.8 535.3 132.9 535 124.2 534.1 105.2 519.6 89.3 500 89.2 485.5 89.1 471.1 89 456.6 89 451.7 89 446.7 88.9 441.8 88.9 444.7 82.5 445.8 75.9 444.9 68.8 442.5 51.1 428.1 39.4 410.5 38.5 381.6 37 352.8 35.5 323.9 34 323.2 25.5 320.2 17 313.8 11.1 307.4 5.2 298.1 -0.1 289.1 0.8 266 3.1 243 5.5 219.9 7.8 183.1 11.5 146.4 15.2 109.6 19 101.1 19.9 92.7 20.7 84.2 21.6 74.7 22.6 66.4 24.9 59.5 31.9 53.4 38 48.9 47.9 49.2 56.6 49.8 69.8 56.5 80.5 66.7 86.5 63.4 87 60 87.5 56.7 88.1 56.5 88.1 56.3 88.2 56.1 88.2 48.4 89.3 38.7 97.6 35.2 104.3 31.5 111.4 30 118.7 31 126.6 32.1 134.9 36.1 142.2 41.9 147.6 37 149.1 32.6 151.5 28.5 155.6 22.4 161.7 17.9 171.6 18.2 180.3 19.1 199.8 33.6 214.6 53.2 215.3 68.3 215.8 83.3 216.3 98.4 216.9 98.5 216.9 98.5 216.9 98.6 216.9 96 217.3 93.5 217.6 90.9 218 72.2 220.6 53.2 222.5 34.6 225.7 34.3 225.7 34.1 225.8 33.8 225.8 26.1 226.9 16.4 235.3 12.9 241.9 9.2 249 7.7 256.3 8.7 264.2 11 281.5 24.8 293 41.8 294.5 41.3 294.9 40.8 295.4 40.4 295.8 34.3 301.9 29.8 311.8 30.1 320.5 31 340.6 45.5 354.1 65.1 355.5 69 355.8 73 356.1 76.9 356.3 73.8 360.7 71.7 365.9 70.9 371.8 70.1 377.5 70.5 383.8 72.6 389.3 60.4 388.9 48.1 388.6 35.9 388.6 35.7 388.6 35.4 388.6 35.1 388.6 16.8 388.2 -0.7 405 0.1 423.6 1 442.9 15.5 458.2 35.1 458.6 49.9 458.9 64.7 459.3 79.6 459.6 115.2 460.4 150.8 461.2 186.4 462 229.5 463 272.5 463.9 315.6 464.9 352.8 465.7 390 466.6 427.2 467.4 445.3 467.8 463.3 468.6 481.4 468.6 481.6 468.6 481.9 468.6 482.2 468.6 499.6 469 514.3 455 516.6 438.3 517.6 430.8 516.6 422.5 512.4 416 507.8 408.9 500.3 401.2 491.5 399.9 479 398 466.6 396.1 454.1 394.2 447.7 393.2 441.2 392.3 434.8 391.3 442.7 390.8 450.6 390.3 458.5 389.8 475 388.5 491.3 387.7 507.6 386.5 Z" fill="#000000" fill-opacity="1" stroke="none"/>
</svg>
