<svg version="1.1" xmlns="http://www.w3.org/2000/svg" fill="#3c1f93" viewBox="0 0 1024 1024">
<path d="M89.495 626.428l-2.806-13.696c-0.128-0.705-0.518-1.293-1.076-1.707l-0.005-0.003c-0.385-0.271-0.878-0.447-1.397-0.447-0.196 0-0.388 0.015-0.574 0.067l0.011-0.002-24.506 5.028-4.84-23.608 24.506-5.026c0.701-0.125 1.282-0.527 1.645-1.099l0.004-0.007c0.249-0.39 0.388-0.88 0.388-1.392 0-0.207-0.016-0.432-0.070-0.629l0.002 0.012-2.794-13.61c-0.128-0.705-0.518-1.293-1.076-1.707l-0.005-0.003c-0.385-0.271-0.878-0.447-1.397-0.447-0.196 0-0.388 0.015-0.574 0.067l0.011-0.002-64.893 13.318c-1.217 0.243-2.119 1.288-2.119 2.56 0 0.197 0.014 0.39 0.065 0.579l-0.002-0.011 2.794 13.608c0.244 1.217 1.289 2.119 2.562 2.119 0.196 0 0.389-0.014 0.577-0.064l-0.011 0.002 23.695-4.853 4.84 23.606-23.695 4.855c-1.217 0.243-2.119 1.288-2.119 2.56 0 0.197 0.014 0.39 0.065 0.579l-0.002-0.011 2.808 13.696c0.124 0.701 0.526 1.282 1.099 1.645l0.007 0.004c0.39 0.249 0.88 0.388 1.392 0.388 0.207 0 0.432-0.016 0.63-0.070l-0.012 0.002 64.891-13.31c1.165-0.193 2.053-1.205 2.053-2.419 0-0.204-0.017-0.427-0.072-0.621l0.002 0.011zM76.063 524.66c0.004-0.252 0.007-0.554 0.007-0.835 0-8.28-2.937-15.867-7.836-21.787l0.052 0.060c-4.913-5.050-11.787-8.205-19.405-8.205-0.567 0-1.131 0.011-1.669 0.056l0.072-0.002q-5.724-0.012-8.781 0.074-2.949 0.108-8.864 0.499c-8.204 0.058-15.527 3.756-20.439 9.557l-0.044 0.048c-4.127 6.106-6.571 13.625-6.571 21.717 0 8.984 3.039 17.262 8.131 23.875l-0.066-0.081c4.914 5.111 11.833 8.293 19.479 8.293 0.561 0 1.097-0.011 1.652-0.055l-0.071 0.002q2.949 0 8.87-0.188t8.775-0.386c8.166-0.052 15.479-3.738 20.385-9.501l0.044-0.048c4.019-5.552 6.434-12.525 6.434-20.041 0-1.077-0.054-2.148-0.139-3.186l0.006 0.132zM60.768 525.162c0.016 0.299 0.049 0.627 0.049 0.957 0 2.981-1.136 5.678-2.988 7.717l0.005-0.006c-2.5 2.289-5.861 3.69-9.546 3.69-0.067 0-0.133 0-0.199-0.001h0.007q-2.944 0.196-8.466 0.378-5.408 0.182-8.272 0.175c-0.325 0.017-0.709 0.050-1.094 0.050-3.362 0-6.435-1.158-8.861-3.114l0.018 0.014c-2.159-2.094-3.497-5.019-3.497-8.259 0-0.072 0-0.144 0.001-0.239v0.007c-0.015-0.266-0.046-0.583-0.046-0.902 0-2.947 1.136-5.656 2.987-7.66l-0.005 0.005c2.502-2.289 5.864-3.69 9.55-3.69 0.065 0 0.13 0 0.195 0.001h-0.006q5.717-0.386 8.264-0.462t8.474-0.068c0.324-0.017 0.706-0.050 1.090-0.050 3.363 0 6.438 1.157 8.865 3.113l-0.018-0.014c2.157 2.082 3.494 4.972 3.494 8.2 0 0.062 0 0.123-0.001 0.185v-0.006zM75.151 479.162l4.327-32.165c0.376-1.765 0.581-3.765 0.581-5.844 0-5.214-1.349-10.111-3.742-14.34l0.072 0.141c-3.309-4.976-8.711-8.347-14.905-8.855l-0.068-0.003c-0.719-0.118-1.579-0.183-2.425-0.183-2.692 0-5.241 0.64-7.511 1.783l0.108-0.051c-2.912 1.39-5.273 3.497-6.926 6.105l-0.048 0.066c-1-2.539-2.485-4.668-4.382-6.412l-0.009-0.008c-2.121-2.018-4.907-3.361-7.976-3.7l-0.064-0.004c-1.073-0.208-2.294-0.333-3.557-0.333-4.71 0-8.998 1.738-12.29 4.637l0.013-0.011q-6.099 5.556-7.832 18.409l-4.203 31.261c-0.014 0.123-0.044 0.257-0.044 0.393 0 0.578 0.201 1.102 0.558 1.528l-0.002-0.003c0.437 0.521 1.066 0.886 1.771 0.959l0.008 0.001 65.654 8.837c0.081 0.007 0.195 0.011 0.309 0.011 1.29 0 2.37-0.951 2.591-2.183l0.001-0.010zM34.558 456.927l-14.375-1.919 1.706-12.656c0.135-2.227 1.164-4.191 2.742-5.541l0.007-0.005c1.148-0.875 2.604-1.392 4.184-1.392 0.432 0 0.835 0.047 1.254 0.117l-0.050-0.004c2.035 0.193 3.806 1.212 4.973 2.722l0.007 0.010c0.883 1.259 1.402 2.804 1.402 4.474 0 0.559-0.059 1.087-0.174 1.602l0.006-0.056zM63.704 460.855l-15.873-2.146 1.83-13.558c0.192-2.351 1.347-4.394 3.069-5.748l0.011-0.008c1.348-0.959 3.048-1.534 4.856-1.534 2.598 0 4.907 1.157 6.451 2.995l0.007 0.008c1.008 1.336 1.6 3.011 1.6 4.845 0 0.56-0.058 1.090-0.172 1.607l0.006-0.056zM85.288 408.088l8.338-24.562c1.418-3.38 2.247-7.318 2.247-11.45 0-3.64-0.644-7.137-1.838-10.377l0.066 0.203c-2.655-6.097-7.767-10.685-14.064-12.546l-0.146-0.049c-2.371-1.019-5.152-1.604-8.068-1.604-3.937 0-7.597 1.082-10.755 2.975l0.108-0.057c-5.874 4.284-10.201 10.399-12.164 17.51l-0.057 0.236-2.988 8.792-20.581-6.993c-0.253-0.109-0.554-0.145-0.841-0.145-0.427 0-0.815 0.114-1.148 0.302l0.008-0.004c-0.619 0.329-1.073 0.886-1.276 1.537l-0.003 0.012-4.477 13.242c-0.081 0.251-0.137 0.527-0.137 0.834 0 0.39 0.081 0.767 0.252 1.095l-0.004-0.010c0.299 0.633 0.824 1.099 1.472 1.322l0.011 0.003 62.842 21.326c0.24 0.071 0.503 0.121 0.771 0.121 1.132 0 2.090-0.705 2.466-1.708l0.004-0.012zM105.857 347.508l4.7-13.82c0.108-0.252 0.144-0.529 0.144-0.839 0-0.428-0.114-0.818-0.303-1.152l0.004 0.008c-0.313-0.582-0.825-1.027-1.451-1.255l-0.012-0.003-62.842-21.328c-0.259-0.113-0.568-0.174-0.886-0.174-1.1 0-2.045 0.747-2.353 1.739l-0.003 0.011-4.698 13.822c-0.080 0.251-0.136 0.527-0.136 0.833 0 0.39 0.080 0.767 0.252 1.095l-0.004-0.010c0.299 0.633 0.825 1.097 1.472 1.32l0.011 0.003 62.842 21.328c0.241 0.071 0.504 0.122 0.773 0.122 1.132 0 2.088-0.706 2.439-1.709l0.004-0.012zM76.715 387.619l-16.923-5.738 2.86-8.408c0.625-2.278 2.097-4.127 4.060-5.218l0.050-0.014c1.013-0.441 2.179-0.696 3.428-0.696s2.415 0.255 3.488 0.71l-0.059-0.014c2.363 0.7 4.318 2.211 5.555 4.19l0.015 0.049c0.625 1.091 0.973 2.41 0.973 3.808 0 1.074-0.206 2.093-0.591 3.008l0.012-0.056zM116.196 322.676l7.71-13.572c0.338-0.584 0.563-1.29 0.563-2.051s-0.201-1.467-0.57-2.086l0.007 0.012-10.199-20.459 22.971-1.979c1.517-0.009 2.816-0.841 3.511-2.087l0.007-0.013 7.964-14.018c0.141-0.303 0.243-0.64 0.243-1.013 0-0.809-0.4-1.51-1.027-1.908l-0.006-0.003c-0.363-0.196-0.767-0.321-1.212-0.332h-0.003l-40.034 3.076-17.111-33.549c-0.242-0.368-0.529-0.647-0.898-0.875l-0.008-0.004c-0.303-0.141-0.64-0.243-1.013-0.243-0.809 0-1.511 0.4-1.909 1.027l-0.003 0.006-7.378 12.946c-0.309 0.567-0.492 1.226-0.492 1.957 0 0.838 0.252 1.638 0.688 2.288l-0.006-0.010 9.547 19.16-21.141 1.263c-0.044-0.001-0.070-0.001-0.118-0.001-1.541 0-2.913 0.829-3.639 2.082l-0.007 0.012-7.713 13.572c-0.141 0.303-0.243 0.64-0.243 1.013 0 0.809 0.4 1.511 1.027 1.909l0.006 0.003c0.338 0.196 0.767 0.32 1.212 0.33h0.003l37.643-2.216 17.765 35.676c0.242 0.368 0.529 0.647 0.898 0.875l0.008 0.004c0.303 0.141 0.64 0.243 1.012 0.243 0.809 0 1.511-0.401 1.908-1.029l0.003-0.006zM167.822 239.321l8.68-9.435c0.459-0.49 0.757-1.138 0.757-1.852 0-0.004 0-0.008 0-0.011v0.001c-0.003-0.714-0.324-1.357-0.832-1.797l-0.002-0.002-27.37-25.139 22.277 5.618c0.337 0.11 0.752 0.147 1.153 0.147 1.155 0 2.219-0.453 2.991-1.204l-0.001 0.001 3.739-4.067c0.629-0.702 1.011-1.641 1.011-2.66 0-0.569-0.121-1.097-0.326-1.593l0.006 0.016-7.436-21.792 27.372 25.141c0.453 0.395 1.069 0.643 1.721 0.643 0.748 0 1.405-0.311 1.893-0.81v-0.001l8.775-9.549c0.458-0.49 0.755-1.137 0.755-1.85 0-0.005 0-0.011 0-0.016v0.001c-0.003-0.714-0.324-1.356-0.832-1.795l-0.002-0.002-48.784-44.817c-0.46-0.445-1.095-0.711-1.793-0.711-0.771 0-1.468 0.33-1.958 0.879l-0.001 0.002-7.813 8.486c-0.703 0.696-1.143 1.657-1.143 2.728 0 0.554 0.118 1.068 0.318 1.528l-0.006-0.016 11.216 34.267-35.028-8.338c-0.367-0.124-0.768-0.192-1.203-0.192-1.166 0-2.232 0.525-2.933 1.383l-0.003 0.004-7.814 8.486c-0.444 0.46-0.709 1.094-0.709 1.792 0 0.771 0.33 1.469 0.879 1.96l0.002 0.001 48.787 44.815c0.437 0.432 1.023 0.692 1.671 0.692 0.066 0 0.131-0.002 0.196-0.005h-0.005c0.715-0.060 1.35-0.391 1.795-0.9l0.002-0.002zM221.164 182.739l10.576-8.008c0.944-0.644 1.539-1.718 1.539-2.928 0-0.333-0.054-0.681-0.134-0.973l0.004 0.016-3.043-10.118 21.334-16.118 8.905 5.678c0.521 0.326 1.16 0.52 1.851 0.52 0.876 0 1.659-0.315 2.281-0.83l-0.003 0.003 10.576-8.018c0.498-0.43 0.811-1.033 0.811-1.729 0-0.462-0.138-0.904-0.387-1.274l0.003 0.005c-0.186-0.257-0.39-0.491-0.635-0.681l-0.004-0.003-58.408-37.826c-0.681-0.522-1.528-0.841-2.468-0.841-0.975 0-1.897 0.367-2.595 0.954l0.004-0.003-12.716 9.617c-1.075 0.717-1.771 1.927-1.771 3.31 0 0.529 0.115 1.066 0.308 1.527l-0.006-0.017 20.459 66.541c0.125 0.309 0.272 0.569 0.465 0.81l-0.003-0.003c0.43 0.498 1.034 0.811 1.73 0.811 0.463 0 0.904-0.138 1.275-0.387l-0.005 0.003zM215.851 119.698l22.935 15.287-14.505 10.954zM325.876 115.113l12.431-6.382c0.631-0.311 1.1-0.833 1.343-1.476l0.004-0.012c0.081-0.247 0.138-0.519 0.138-0.821 0-0.435-0.118-0.83-0.313-1.166l0.004 0.008-30.266-58.913c-0.44-0.877-1.328-1.459-2.349-1.459-0.449 0-0.88 0.119-1.255 0.316l0.009-0.004-45.131 23.185c-0.631 0.311-1.099 0.832-1.343 1.474l-0.004 0.012c-0.081 0.247-0.137 0.518-0.137 0.82 0 0.435 0.118 0.83 0.312 1.191l-0.004-0.008 9.423 18.339c3.438 6.098 6.302 13.131 8.222 20.567l0.133 0.624q1.675 8.206-2.692 11.478c-0.819 0.456-1.349 1.328-1.349 2.303 0 0.445 0.116 0.874 0.309 1.224l-0.004-0.009 5.173 10.071c0.5 0.835 1.396 1.397 2.422 1.397 0.427 0 0.817-0.081 1.159-0.254l-0.011 0.005c5.749-2.671 10.398-6.922 13.504-12.171l0.072-0.136c1.258-2.789 1.976-6.038 1.976-9.44 0-2.476-0.381-4.849-1.085-7.085l0.052 0.176c-2.81-9.564-6.318-17.874-10.641-25.651l0.323 0.638-3.929-7.632 16.356-8.4 23.697 46.112c0.449 0.822 1.319 1.355 2.293 1.355 0.426 0 0.814-0.108 1.152-0.264l-0.010 0.004zM355.563 100.903l24.956-7.059c7.495-1.658 13.767-5.918 18.019-11.765l0.061-0.078c2.162-3.365 3.442-7.457 3.442-11.856 0-2.492-0.426-4.9-1.165-7.136l0.052 0.146c-1.412-6.559-5.745-11.892-11.54-14.633l-0.127-0.058c-3.198-1.165-6.896-1.852-10.765-1.852s-7.567 0.687-11 1.921l0.235-0.068-8.93 2.532-5.916-20.932c-0.179-0.691-0.627-1.254-1.217-1.545l-0.008-0.004c-0.364-0.187-0.77-0.303-1.216-0.303-0.273 0-0.563 0.051-0.819 0.126l0.012-0.003-13.455 3.807c-0.648 0.188-1.196 0.617-1.523 1.156l-0.004 0.008c-0.209 0.366-0.338 0.78-0.338 1.26 0 0.258 0.049 0.509 0.12 0.751l-0.003-0.011 18.029 63.857c0.332 1.078 1.332 1.844 2.492 1.844 0.24 0 0.452-0.019 0.681-0.078l-0.012 0.003zM417.171 83.514l14.057-3.959c0.69-0.18 1.254-0.63 1.543-1.219l0.004-0.009c0.192-0.337 0.311-0.764 0.311-1.207 0-0.256-0.047-0.505-0.116-0.746l0.003 0.011-18.027-63.857c-0.26-1.087-1.222-1.895-2.372-1.895-0.267 0-0.528 0.052-0.777 0.128l0.011-0.003-14.057 3.959c-0.648 0.186-1.197 0.617-1.523 1.156l-0.004 0.008c-0.209 0.366-0.338 0.78-0.338 1.259 0 0.257 0.049 0.509 0.12 0.75l-0.003-0.011 18.029 63.857c0.331 1.079 1.332 1.846 2.493 1.846 0.24 0 0.452-0.019 0.681-0.078l-0.012 0.003zM367.586 82.235l-4.853-17.14 8.542-2.416c0.839-0.313 1.831-0.496 2.849-0.496 1.39 0 2.685 0.327 3.836 0.909l-0.054-0.014c1.968 1.271 3.374 3.253 3.871 5.59l0.006 0.060c0.315 0.908 0.499 1.973 0.499 3.066 0 1.41-0.306 2.752-0.834 3.965l0.016-0.063c-1.069 2.103-2.988 3.637-5.292 4.151l-0.056 0.006zM443.367 77.984l15.555-1.321c1.511-0.118 2.755-1.023 3.375-2.303l0.007-0.016 11.13-19.991 14.602 17.825c0.752 1.071 1.969 1.764 3.358 1.764 0.132 0 0.264-0.004 0.394-0.012l-0.011 0.001 16.063-1.349c1.102-0.175 1.963-1.102 1.963-2.248 0-0.012 0-0.048 0-0.060v0.002c-0.051-0.447-0.19-0.845-0.426-1.208l0.004 0.007-25.166-31.269 18.013-33.062c0.131-0.312 0.203-0.655 0.203-1.034 0-0.069-0.002-0.138-0.005-0.206v0.006c-0.173-1.101-1.1-1.963-2.245-1.963-0.014 0-0.050 0-0.064 0.001h0.002l-14.845 1.259c-1.528 0.184-2.794 1.158-3.367 2.502l-0.007 0.017-10.397 18.708-12.988-16.735c-0.767-1.162-2.085-1.925-3.562-1.925-0.111 0-0.197 0.002-0.307 0.007h0.009l-15.553 1.321c-1.102 0.175-1.963 1.102-1.963 2.248 0 0.012 0 0.048 0 0.060v-0.002c0.051 0.447 0.19 0.845 0.426 1.208l-0.004-0.007 23.107 29.81-19.405 34.826c-0.131 0.311-0.203 0.654-0.203 1.032 0 0.069 0.002 0.137 0.005 0.205v-0.006c0.173 1.101 1.1 1.963 2.245 1.963 0.014 0 0.050 0 0.064-0.001h-0.002zM541.022 74.072l30.102 3.691c1.458 0.238 3.127 0.367 4.838 0.367 3.5 0 6.873-0.557 10.043-1.548l-0.241 0.064c7.903-2.482 13.694-9.369 14.517-17.716l0.004-0.078c0.177-0.961 0.262-2.085 0.262-3.2 0-5.226-2.055-9.983-5.42-13.48l0.004 0.004c-4.898-4.644-11.384-7.649-18.543-8.145l-0.082-0.003-13.572-1.663 1.387-11.255 32.528 3.997c0.115 0.010 0.24 0.016 0.367 0.016 1.343 0 2.465-1.018 2.604-2.312l0.001-0.008 1.293-10.636c0.010-0.114 0.015-0.238 0.015-0.363 0-1.343-1.017-2.466-2.312-2.606l-0.008-0.001-49.044-6.004c-0.118-0.012-0.248-0.019-0.379-0.019-0.584 0-1.137 0.206-1.542 0.57l0.002-0.002c-0.517 0.441-0.878 1.073-0.945 1.78l-0.001 0.007-8.072 65.763c-0.005 0.072-0.008 0.175-0.008 0.255 0 1.32 0.96 2.404 2.223 2.595l0.009 0.001zM559.198 62.419l2.053-16.816 11.856 1.459c2.416 0.138 4.526 1.322 5.928 3.070l0.008 0.011c0.968 1.343 1.548 3.041 1.548 4.849 0 0.452-0.046 0.898-0.114 1.337l0.004-0.054c-0.236 2.349-1.332 4.395-2.98 5.852l-0.006 0.005c-1.356 1.147-3.137 1.846-5.090 1.846-0.499 0-0.968-0.052-1.451-0.13l0.054 0.005zM607.282 83.252l12.031 3.582c0.377 0.135 0.813 0.209 1.262 0.209 0.318 0 0.631-0.049 0.911-0.12l-0.016 0.004c0.656-0.207 1.255-0.555 1.731-0.963l-0.004 0.004 38.148-29.297-10.972 36.762c-0.073 0.237-0.125 0.496-0.125 0.762 0 0.448 0.125 0.879 0.331 1.224l-0.004-0.007c0.364 0.587 0.907 1.029 1.587 1.217l0.012 0.003 13.389 4.005c0.237 0.073 0.497 0.125 0.763 0.125 0.448 0 0.878-0.125 1.223-0.331l-0.007 0.004c0.573-0.325 1.007-0.847 1.198-1.48l0.003-0.012 18.962-63.481c0.077-0.251 0.13-0.525 0.13-0.83 0-0.437-0.111-0.835-0.273-1.204l0.004 0.010c-0.313-0.624-0.872-1.077-1.526-1.26l-0.011-0.002-12.031-3.584c-0.37-0.125-0.775-0.193-1.213-0.193-1.028 0-1.974 0.396-2.671 1.069l0.001-0.001-38.606 30.873 11.41-38.252c0.072-0.242 0.124-0.507 0.124-0.779 0-1.198-0.808-2.184-1.894-2.501l-0.012-0.003-13.304-3.963c-0.242-0.072-0.507-0.124-0.779-0.124-1.198 0-2.184 0.808-2.501 1.894l-0.003 0.012-18.914 63.372c-0.077 0.25-0.131 0.525-0.131 0.83 0 0.436 0.112 0.834 0.274 1.202l-0.004-0.010c0.313 0.625 0.872 1.078 1.526 1.262l0.011 0.002zM704.447 119.725c4.592 2.43 9.95 4.134 15.651 4.769l0.199 0.012c0.826 0.11 1.782 0.147 2.746 0.147 3.712 0 7.251-0.839 10.387-2.356l-0.138 0.063c3.712-1.866 6.642-4.856 8.41-8.527l0.054-0.117c1.328-2.608 2.099-5.677 2.099-8.93 0-0.256-0.003-0.512-0.009-0.766l0.001 0.046c-0.196-3.752-1.586-7.138-3.773-9.854l0.016 0.044c3.138-0.060 6.038-1.143 8.342-2.929l-0.044 0.015c2.177-1.775 3.948-3.961 5.173-6.481l0.055-0.118c1.075-2.148 1.705-4.656 1.705-7.326 0-1.202-0.127-2.363-0.372-3.496l0.012 0.116c-0.943-4.326-2.931-8.085-5.714-11.131l0.011 0.012c-3.384-3.764-7.464-6.829-12.049-9.029l-0.24-0.109q-13.106-6.439-22.112-4.399c-5.722 1.128-10.501 4.458-13.498 9.058l-0.054 0.074c-0.184 0.259-0.299 0.58-0.299 0.94 0 0.258 0.061 0.506 0.175 0.715l-0.003-0.006c0.239 0.568 0.645 1.016 1.166 1.275l0.009 0.004 12.733 6.256c0.444 0.256 0.967 0.398 1.536 0.398 0.067 0 0.135-0.001 0.201-0.004h-0.006c0.621-0.115 1.151-0.363 1.605-0.702l-0.006 0.004c1.128-1.195 2.691-1.921 4.457-1.921 0.065 0 0.129 0.001 0.194 0.002h-0.006c2.491 0.080 4.822 0.765 6.833 1.899l-0.073-0.048c2.309 0.975 4.196 2.656 5.418 4.724l0.019 0.057c0.443 0.82 0.701 1.785 0.701 2.812s-0.258 1.992-0.711 2.856l0.010-0.044c-0.772 1.901-2.465 3.267-4.475 3.63l-0.046 0.003c-0.311 0.018-0.655 0.052-1.023 0.052-2.112 0-4.093-0.565-5.81-1.536l0.060 0.019-6.605-3.246c-0.31-0.143-0.655-0.246-1.035-0.246-0.326 0-0.643 0.066-0.941 0.19l0.010-0.004c-0.691 0.254-1.223 0.757-1.535 1.393l-0.005 0.010-3.838 7.779c-0.189 0.369-0.305 0.78-0.305 1.254 0 0.306 0.054 0.582 0.133 0.846l-0.004-0.012c0.184 0.683 0.633 1.215 1.221 1.521l0.009 0.004 6.767 3.326c2.624 1.131 4.786 2.924 6.316 5.173l0.044 0.055c0.529 0.902 0.872 1.991 0.872 3.175 0 1.133-0.304 2.175-0.819 3.103l0.010-0.044c-0.942 2.025-2.872 3.432-5.16 3.581l-0.013 0.001c-0.242 0.008-0.51 0.013-0.78 0.013-2.79 0-5.401-0.72-7.649-2.024l0.072 0.049q-7.512-3.693-7.401-9.225c-0.069-0.687-0.27-1.288-0.585-1.845l0.008 0.015c-0.382-0.565-0.899-1.007-1.52-1.273l-0.015-0.006-12.464-6.124c-0.299-0.138-0.631-0.238-0.975-0.238-0.202 0-0.401 0.018-0.592 0.075l0.010-0.002c-0.528 0.122-0.967 0.465-1.204 0.953l-0.003 0.007-0.080 0.186c-0.771 2.026-1.219 4.347-1.219 6.804 0 1.266 0.123 2.492 0.338 3.692l-0.012-0.124c0.905 4.272 2.884 8.004 5.659 10.97l-0.009-0.010c3.809 4.132 8.386 7.47 13.496 9.856l0.26 0.116zM743.646 139.185l11.354 8.15c0.443 0.331 1.007 0.529 1.602 0.529 0.123 0 0.245-0.005 0.365-0.015l-0.009 0.001c0.706-0.082 1.321-0.493 1.675-1.032l0.003-0.005 14.575-20.321 19.568 14.026-14.575 20.321c-0.313 0.394-0.501 0.903-0.501 1.463 0 0.177 0.011 0.328 0.055 0.499l-0.002-0.010c0.138 0.702 0.559 1.286 1.1 1.667l0.006 0.004 11.278 8.088c0.443 0.331 1.009 0.529 1.604 0.529 0.123 0 0.245-0.005 0.365-0.015l-0.009 0.001c0.706-0.083 1.32-0.493 1.675-1.032l0.003-0.005 38.594-53.827c0.32-0.435 0.512-0.964 0.512-1.545 0-0.888-0.443-1.665-1.127-2.151l-0.005-0.004-11.278-8.088c-0.435-0.32-0.965-0.512-1.546-0.512-0.888 0-1.664 0.442-2.15 1.102l-0.004 0.005-14.117 19.667-19.568-14.026 14.117-19.665c0.32-0.435 0.512-0.965 0.512-1.547 0-0.888-0.442-1.665-1.102-2.151l-0.005-0.004-11.354-8.148c-0.394-0.313-0.903-0.501-1.463-0.501-0.177 0-0.328 0.011-0.499 0.055l0.010-0.002c-0.702 0.138-1.286 0.559-1.667 1.1l-0.004 0.006-38.594 53.817c-0.322 0.401-0.516 0.944-0.516 1.516 0 0.845 0.44 1.601 1.094 2.042l0.006 0.004zM804.208 184.999l34.686 34.63c0.459 0.497 1.102 0.811 1.84 0.827h0.003c0.018 0.001 0.061 0.001 0.082 0.001 0.693 0 1.32-0.302 1.736-0.762l0.001-0.001 7.137-7.145c0.497-0.465 0.783-1.142 0.783-1.865s-0.309-1.4-0.783-1.865v0l-23.414-23.367 9.369-9.38 21.25 21.2c0.465 0.497 1.143 0.808 1.866 0.808s1.401-0.31 1.866-0.808v0l6.561-6.569c0.497-0.465 0.783-1.143 0.783-1.866s-0.309-1.401-0.783-1.866v0l-21.25-21.202 9.161-9.171 22.841 22.789c0.458 0.498 1.102 0.813 1.84 0.829h0.003c0.016 0.001 0.058 0.001 0.076 0.001 0.695 0 1.324-0.302 1.765-0.761l0.001-0.001 7.137-7.145c0.497-0.465 0.783-1.142 0.783-1.865s-0.309-1.4-0.783-1.865v0l-34.112-34.049c-0.441-0.459-1.068-0.76-1.739-0.76-0.044 0-0.064 0-0.108 0.001h0.003c-0.717 0.016-1.385 0.331-1.842 0.829l-0.001 0.001-46.806 46.878c-0.447 0.46-0.714 1.097-0.714 1.797s0.268 1.337 0.715 1.798l-0.001-0.001zM864.12 253.737c3.247 4.569 7.243 8.353 11.831 11.315l0.178 0.111c3.87 2.496 8.551 4.023 13.617 4.135h0.017c0.010 0 0.045 0 0.058 0 4.973 0 9.569-1.601 13.313-4.329l-0.064 0.052c0.459-0.325 0.776-0.837 0.837-1.42v-0.005c0.007-0.075 0.010-0.181 0.010-0.265 0-0.511-0.178-0.973-0.455-1.352l0.003 0.003-8.544-11.709c-0.396-0.637-1.003-1.133-1.704-1.394l-0.015-0.005c-0.2-0.048-0.443-0.062-0.689-0.062-0.618 0-1.192 0.136-1.703 0.388l0.014-0.006c-1.418 0.683-3.109 1.071-4.858 1.071-1.164 0-2.302-0.18-3.376-0.501l0.076 0.014c-2.562-1.036-4.693-2.787-6.168-4.969l-0.019-0.053q-6.807-9.312 3.33-17.241 2.342-1.834 6.945-5.208t6.893-4.911q10.626-7.259 17.435 2.051c1.648 2.027 2.723 4.574 2.934 7.342l0.002 0.053c-0.122 2.94-1.271 5.603-3.106 7.639l0.006-0.007c-0.503 0.591-0.843 1.339-1.002 2.157l-0.003 0.018c0.012 0.772 0.313 1.476 0.776 2.031l-0.002-0.003 8.544 11.707c0.328 0.462 0.831 0.813 1.408 0.906l0.009 0.001c0.126 0.018 0.264 0.051 0.427 0.051 0.453 0 0.884-0.144 1.214-0.426l-0.003 0.002c3.77-2.811 6.619-6.698 8.084-11.21l0.052-0.147c0.695-2.239 1.088-4.831 1.088-7.505 0-2.407-0.32-4.719-0.911-6.935l0.050 0.187c-1.519-5.686-4.002-10.682-7.279-15.010l0.072 0.113c-4.469-6.81-11.158-11.844-19.032-14.124l-0.245-0.061c-1.668-0.375-3.611-0.58-5.585-0.58-6.12 0-11.774 2.043-16.295 5.486l0.065-0.054q-2.367 1.599-7.469 5.34-5.028 3.681-7.193 5.393c-6.29 4.393-10.57 11.269-11.445 19.171l-0.007 0.123c-0.004 0.245-0.006 0.518-0.006 0.814 0 8.331 2.949 15.968 7.889 21.907l-0.052-0.060zM887.115 284.21l5.969 11.856c0.565 1.259 1.79 2.104 3.235 2.104 0.121 0 0.241-0.004 0.338-0.011l10.493-1.154 12.019 23.889-7.197 7.721c-0.566 0.629-0.901 1.459-0.901 2.364 0 0.639 0.177 1.254 0.459 1.768l-0.006-0.011 5.969 11.856c0.394 0.695 1.141 1.148 1.978 1.148 0.324 0 0.637-0.067 0.909-0.192l-0.009 0.004c0.305-0.134 0.56-0.31 0.774-0.507l-0.002 0.002 47.765-50.631c0.827-0.745 1.342-1.793 1.342-2.987 0-0.72-0.195-1.413-0.554-2.020l0.007 0.012-7.145-14.218c-0.631-1.418-2.032-2.411-3.648-2.411-0.303 0-0.578 0.044-0.846 0.082l0.017-0.003-69.145 8.14c-0.324 0.067-0.623 0.184-0.885 0.325l0.010-0.005c-0.695 0.392-1.149 1.138-1.149 1.976 0 0.325 0.068 0.639 0.194 0.911l-0.004-0.009zM950.060 290.381l-19.174 19.806-8.156-16.234zM911.974 354.735l2.558 6.999c0.562 1.52 1.981 2.591 3.674 2.591 0.118 0 0.235-0.003 0.328-0.009l-0.009 0.001 21.792 0.499c0.010 0 0.046 0 0.058 0 0.383 0 0.755-0.068 1.086-0.197l-0.013 0.004c0.776-0.316 1.33-1.073 1.33-1.957 0-0.246-0.049-0.462-0.12-0.691l0.003 0.009-4.253-11.596c-0.302-0.966-1.004-1.732-1.905-2.11l-0.014-0.005c-0.506-0.194-1.085-0.312-1.705-0.312-0.373 0-0.717 0.049-1.075 0.122l-20.319 4.075c-0.572 0.124-1.034 0.464-1.328 0.953l-0.003 0.006c-0.145 0.261-0.25 0.578-0.25 0.91 0 0.249 0.054 0.491 0.133 0.697l-0.003-0.008zM950.935 461.185l29.084-26.678 34.048 12.687c0.254 0.132 0.561 0.206 0.88 0.206 0.139 0 0.299-0.010 0.43-0.053l-0.008 0.002c1.005-0.177 1.737-1.024 1.737-2.052 0-0.147-0.011-0.315-0.056-0.456l0.002 0.009-2.938-15.341c-0.241-1.581-1.282-2.86-2.694-3.423l-0.019-0.006-27.128-9.755-1.079-5.61 23.757-4.568c1.226-0.235 2.162-1.285 2.162-2.566 0-0.189-0.013-0.375-0.060-0.557l0.002 0.011-2.626-13.742c-0.12-0.702-0.518-1.286-1.087-1.653l-0.006-0.004c-0.394-0.256-0.89-0.399-1.409-0.399-0.199 0-0.395 0.015-0.585 0.065l-65.034 12.468c-1.197 0.182-2.096 1.198-2.096 2.418 0 0.198 0.016 0.391 0.068 0.58l-0.002-0.011 2.626 13.742c0.122 0.707 0.507 1.322 1.063 1.715l0.005 0.003c0.388 0.301 0.887 0.459 1.413 0.459 0.189 0 0.375-0.014 0.556-0.063l-0.010 0.002 24.566-4.713 1.259 6.508-22.209 19.746c-0.886 0.7-1.451 1.776-1.451 2.981 0 0.324 0.049 0.641 0.122 0.95l-0.004-0.017 3.046 15.844c0.119 0.617 0.459 1.1 0.954 1.416l0.005 0.003c0.365 0.244 0.782 0.381 1.266 0.381 0.186 0 0.369-0.014 0.524-0.063l-0.010 0.002c0.401-0.059 0.768-0.246 1.036-0.512v0zM947.795 496.923c-0.004 0.252-0.007 0.555-0.007 0.835 0 8.279 2.939 15.867 7.839 21.784l-0.052-0.059c4.913 5.047 11.785 8.202 19.402 8.202 0.569 0 1.135-0.011 1.675-0.056l-0.072 0.002q5.722 0 8.781-0.076 2.949-0.108 8.864-0.501c8.205-0.063 15.527-3.765 20.436-9.569l0.044-0.048c4.124-6.105 6.565-13.62 6.565-21.708 0-8.987-3.041-17.269-8.138-23.883l0.066 0.081c-4.914-5.107-11.83-8.287-19.474-8.287-0.563 0-1.101 0.011-1.659 0.055l0.071-0.002q-2.949 0-8.868 0.19t-8.777 0.388c-8.166 0.057-15.476 3.743-20.383 9.505l-0.044 0.048c-4.014 5.552-6.426 12.499-6.426 20.013 0 1.079 0.055 2.151 0.139 3.191l-0.006-0.132zM963.090 496.443c-0.017-0.3-0.049-0.63-0.049-0.963 0-2.979 1.135-5.674 2.984-7.713l-0.005 0.006c2.501-2.29 5.862-3.692 9.548-3.692 0.066 0 0.131 0 0.197 0.001h-0.006q2.944-0.198 8.466-0.382 5.408-0.18 8.27-0.175c0.329-0.018 0.716-0.051 1.129-0.051 3.362 0 6.435 1.157 8.861 3.113l-0.018-0.014c2.16 2.095 3.499 5.021 3.499 8.262 0 0.070 0 0.141-0.001 0.235v-0.007c0.015 0.267 0.047 0.585 0.047 0.906 0 2.946-1.136 5.655-2.985 7.658l0.005-0.005c-2.503 2.29-5.867 3.692-9.555 3.692-0.063 0-0.125 0-0.187-0.001h0.006q-5.717 0.386-8.266 0.464t-8.472 0.070c-0.328 0.018-0.714 0.051-1.102 0.051-3.362 0-6.436-1.157-8.863-3.112l0.018 0.014c-2.158-2.082-3.496-4.971-3.496-8.199 0-0.061 0-0.123 0.001-0.184v0.006zM946.544 558.049l-1.77 14.076c-0.013 0.124-0.044 0.259-0.044 0.396 0 0.581 0.19 1.134 0.51 1.575l-0.003-0.005c0.392 0.559 1.016 0.911 1.719 0.975h0.006l51.846 6.501-2.239 17.827c-0.012 0.123-0.044 0.258-0.044 0.395 0 0.581 0.19 1.134 0.51 1.576l-0.003-0.005c0.393 0.558 1.016 0.91 1.719 0.975h0.006l11.34 1.415c0.115 0.010 0.242 0.016 0.369 0.016 1.342 0 2.464-1.016 2.603-2.309l0.001-0.008 6.889-55.003c0.011-0.117 0.017-0.244 0.017-0.373 0-1.34-1.015-2.437-2.308-2.6l-11.348-1.416c-0.119-0.012-0.249-0.019-0.381-0.019-0.584 0-1.135 0.205-1.54 0.568l0.002-0.002c-0.517 0.441-0.878 1.071-0.947 1.778l-0.001 0.007-2.239 17.827-51.848-6.499c-0.12-0.013-0.252-0.044-0.385-0.044-0.582 0-1.133 0.204-1.536 0.567l0.002-0.002c-0.521 0.44-0.886 1.070-0.959 1.777l-0.001 0.008zM930.828 631.85c-1.226 3.385-1.959 7.311-1.959 11.39 0 4.504 0.876 8.786 2.434 12.724l-0.075-0.239c3.494 7 9.729 12.179 17.253 14.207l0.19 0.051q5.426 1.785 8.386 2.629 2.852 0.827 8.59 2.284c2.438 0.814 5.273 1.273 8.2 1.273 5.28 0 10.197-1.519 14.372-4.134l-0.118 0.065c9.108-7.243 14.899-18.295 14.899-30.741 0-4.653-0.818-9.116-2.3-13.257l0.078 0.266c-3.455-7.057-9.723-12.287-17.266-14.322l-0.19-0.051q-2.812-0.911-8.489-2.558t-8.462-2.352c-2.438-0.815-5.272-1.274-8.2-1.274-5.24 0-10.142 1.511-14.308 4.089l0.118-0.065c-6.5 4.827-11.204 11.762-13.105 19.756l-0.053 0.241zM945.535 636.115c0.762-3.169 2.745-5.749 5.418-7.314l0.058-0.019c1.714-0.78 3.705-1.258 5.811-1.258 1.645 0 3.202 0.269 4.666 0.78l-0.11-0.019q2.878 0.716 8.16 2.239 5.208 1.517 7.906 2.408c3.574 0.886 6.555 3.039 8.482 5.925l0.044 0.056c0.836 1.546 1.335 3.419 1.335 5.364 0 1.343-0.24 2.628-0.65 3.832l0.016-0.074c-0.764 3.123-2.741 5.681-5.401 7.207l-0.058 0.019c-1.714 0.779-3.706 1.256-5.812 1.256-1.644 0-3.201-0.269-4.665-0.778l0.11 0.019q-5.546-1.401-8.018-2.105t-8.082-2.558c-3.574-0.887-6.554-3.040-8.482-5.926l-0.044-0.056c-0.839-1.541-1.34-3.386-1.34-5.351 0-1.325 0.236-2.594 0.638-3.76l-0.016 0.074zM917.555 675.394l-6.297 13.292c-0.176 0.318-0.262 0.697-0.262 1.091 0 0.32 0.064 0.631 0.183 0.902l-0.004-0.010c0.245 0.632 0.703 1.133 1.286 1.403l0.010 0.004 19.927 9.433-4.977 10.512c-2.594 4.646-4.094 10.188-4.094 16.095 0 1.84 0.14 3.635 0.436 5.401l-0.016-0.192c1.645 6.572 6.294 11.8 12.361 14.218l0.135 0.054c2.98 1.673 6.54 2.675 10.317 2.675 3.23 0 6.26-0.711 8.996-1.99l-0.129 0.058c6.484-3.642 11.476-9.252 14.272-16.031l0.074-0.207 12.359-26.107c0.177-0.319 0.263-0.699 0.263-1.094 0-0.32-0.063-0.63-0.182-0.901l0.004 0.010c-0.261-0.647-0.762-1.158-1.39-1.452l-0.011-0.004-59.864-28.35c-0.315-0.137-0.686-0.236-1.070-0.236-1.017 0-1.901 0.577-2.338 1.417l-0.004 0.009zM945.717 707.485l15.863 7.517-4.898 10.325c-0.901 2.364-2.747 4.201-5.079 5.078l-0.061 0.013c-0.712 0.196-1.537 0.315-2.403 0.315-1.593 0-3.103-0.394-4.4-1.098l0.055 0.016c-2.244-0.891-3.998-2.669-4.822-4.892l-0.012-0.060c-0.195-0.712-0.314-1.539-0.314-2.405 0-1.65 0.432-3.191 1.161-4.534l-0.016 0.054zM887.695 737.483l-15.297 20.936c-4.331 5.173-6.954 11.913-6.954 19.276 0 0.432 0.006 0.839 0.017 1.268l-0.001-0.061c0.7 6.811 4.39 12.626 9.725 16.222l0.074 0.055c3.623 3.057 8.339 4.911 13.493 4.911 1.704 0 3.331-0.197 4.915-0.578l-0.137 0.019c7.14-2.43 12.996-7.084 16.884-13.129l0.072-0.127 5.476-7.51 17.561 12.815c0.394 0.317 0.906 0.508 1.47 0.508 0.147 0 0.317-0.010 0.459-0.052l-0.010 0.002c0.704-0.134 1.29-0.528 1.675-1.090l0.004-0.006 8.262-11.282c0.315-0.427 0.505-0.946 0.505-1.517 0-0.125-0.006-0.249-0.017-0.371l0.001 0.009c-0.078-0.706-0.461-1.323-1.020-1.705l-0.005-0.003-53.555-39.149c-0.427-0.302-0.941-0.46-1.482-0.46-0.837 0-1.591 0.392-2.057 1.017l-0.003 0.004zM849.924 789.137l-8.608 11.783c-0.318 0.395-0.51 0.908-0.51 1.472 0 0.147 0.010 0.315 0.052 0.456l-0.002-0.010c0.124 0.684 0.499 1.256 1.015 1.637l0.005 0.003 53.571 39.167c0.426 0.328 0.95 0.526 1.528 0.526 0.839 0 1.592-0.435 2.034-1.081l0.004-0.006 8.61-11.783c0.314-0.427 0.503-0.947 0.503-1.518 0-0.125-0.006-0.249-0.017-0.371l0.001 0.009c-0.077-0.707-0.46-1.324-1.020-1.705l-0.005-0.003-53.557-39.161c-0.427-0.303-0.942-0.461-1.484-0.461-0.836 0-1.59 0.392-2.056 1.017l-0.003 0.004zM889.735 759.585l14.437 10.554-5.234 7.178c-1.222 1.913-3.168 3.296-5.418 3.759l-0.058 0.006c-0.252 0.016-0.529 0.048-0.833 0.048-2.172 0-4.158-0.781-5.713-2.102l0.008 0.006c-1.974-1.33-3.428-3.306-4.057-5.613l-0.010-0.067c-0.111-0.463-0.147-1.016-0.147-1.579 0-1.909 0.689-3.648 1.828-5.022l-0.006 0.008zM828.169 814.423l-9.571 8.585c-0.515 0.443-0.874 1.075-0.938 1.782v0.007c-0.005 0.068-0.007 0.143-0.007 0.242 0 0.637 0.251 1.213 0.648 1.649l-0.001-0.001 24.78 27.685-21.631-7.768c-0.455-0.186-1.003-0.3-1.544-0.3-1.016 0-1.957 0.338-2.681 0.943l0.006-0.004-4.095 3.683c-0.779 0.72-1.276 1.778-1.276 2.931 0 0.435 0.066 0.837 0.192 1.222l-0.005-0.018 5.276 22.412-24.782-27.685c-0.49-0.508-1.152-0.826-1.908-0.826-0.645 0-1.254 0.243-1.708 0.631l0.002-0.002-9.665 8.658c-0.515 0.443-0.874 1.075-0.938 1.782v0.007c-0.005 0.069-0.008 0.144-0.008 0.244 0 0.636 0.251 1.213 0.648 1.647l-0.001-0.001 44.194 49.35c0.492 0.561 1.196 0.898 1.975 0.898 0.691 0 1.319-0.26 1.778-0.697l-0.001 0.001 8.594-7.698c0.877-0.703 1.413-1.776 1.413-2.977 0-0.426-0.065-0.816-0.188-1.192l0.005 0.017-7.824-35.206 34.059 11.711c0.452 0.201 0.975 0.324 1.54 0.324 1.038 0 1.99-0.431 2.683-1.098v0l8.594-7.698c0.56-0.492 0.896-1.195 0.896-1.974 0-0.691-0.26-1.32-0.697-1.779l0.001 0.001-44.194-49.35c-0.438-0.513-1.078-0.838-1.79-0.846h-0.001c-0.011 0-0.047 0-0.060 0-0.705 0-1.345 0.269-1.833 0.719l0.001-0.001zM746.522 880.742l-12.283 6.691c-0.626 0.319-1.087 0.847-1.319 1.517l-0.003 0.012c-0.074 0.238-0.126 0.498-0.126 0.765 0 0.447 0.125 0.876 0.33 1.22l-0.004-0.007 11.969 21.962-21.153 11.536-11.967-21.964c-0.315-0.623-0.876-1.073-1.533-1.229l-0.011-0.002c-0.197-0.058-0.435-0.077-0.655-0.077-0.498 0-0.953 0.132-1.343 0.373l0.008-0.004-12.175 6.635c-0.626 0.32-1.086 0.847-1.321 1.517l-0.004 0.012c-0.073 0.237-0.125 0.497-0.125 0.763 0 0.448 0.125 0.878 0.331 1.223l-0.004-0.007 31.705 58.148c0.447 0.834 1.324 1.399 2.307 1.399 0.463 0 0.907-0.126 1.289-0.335l-0.008 0.004 12.175-6.635c0.834-0.447 1.399-1.324 1.399-2.307 0-0.463-0.126-0.907-0.335-1.289l0.004 0.008-11.581-21.252 21.153-11.536 11.581 21.25c0.446 0.835 1.323 1.4 2.306 1.4 0.463 0 0.907-0.126 1.29-0.336l-0.008 0.004 12.283-6.691c0.623-0.314 1.073-0.875 1.229-1.531l0.002-0.011c0.058-0.197 0.077-0.435 0.077-0.655 0-0.498-0.132-0.953-0.373-1.343l0.004 0.008-31.705-58.182c-0.399-0.821-1.229-1.357-2.211-1.357-0.459 0-0.898 0.129-1.273 0.365l0.007-0.004zM678.968 915.349l-46.218 16.286c-0.685 0.21-1.216 0.691-1.535 1.282l-0.004 0.009c-0.18 0.322-0.268 0.706-0.268 1.128 0 0.315 0.061 0.621 0.177 0.888l-0.004-0.010 3.365 9.537c0.365 1.036 1.331 1.785 2.477 1.785 0.323 0 0.638-0.061 0.937-0.177l-0.011 0.004 31.197-10.997 4.403 12.495-28.317 9.98c-1.036 0.368-1.783 1.336-1.783 2.483 0 0.322 0.061 0.636 0.175 0.911l-0.004-0.012 3.076 8.769c0.366 1.036 1.334 1.784 2.48 1.784 0.323 0 0.637-0.061 0.936-0.177l-0.011 0.004 28.317-9.978 4.314 12.225-30.43 10.71c-0.684 0.21-1.215 0.691-1.533 1.282l-0.004 0.009c-0.18 0.321-0.269 0.705-0.269 1.102 0 0.315 0.062 0.621 0.178 0.888l-0.004-0.010 3.363 9.541c0.369 1.030 1.334 1.773 2.476 1.773 0.325 0 0.64-0.062 0.94-0.178l-0.011 0.004 45.45-15.997c0.681-0.206 1.203-0.699 1.469-1.325l0.004-0.010c0.136-0.316 0.235-0.688 0.235-1.072 0-0.333-0.064-0.681-0.185-0.963l0.004 0.012-21.986-62.46c-0.384-1.003-1.336-1.675-2.436-1.675-0.3 0-0.569 0.053-0.827 0.131l0.012-0.003zM596.878 940.41l-32.158 4.387c-7.247 0.514-13.683 3.577-18.511 8.29l0.004-0.003c-3.055 3.456-4.913 8.037-4.913 13.056 0 1.327 0.129 2.612 0.378 3.87l-0.013-0.126c0.447 3.514 1.925 6.629 4.136 9.095l-0.009-0.010c2.028 2.353 4.662 4.123 7.691 5.033l0.12 0.044c-2.1 1.548-3.801 3.554-4.967 5.849l-0.051 0.083c-1.018 1.897-1.607 4.136-1.607 6.51 0 0.778 0.065 1.547 0.19 2.303l-0.007-0.075c0.461 5.912 3.63 10.997 8.232 14.067l0.066 0.050q6.993 4.401 19.822 2.662l31.257-4.261c0.708-0.072 1.329-0.451 1.716-1.006l0.003-0.005c0.309-0.435 0.495-0.961 0.495-1.537 0-0.142-0.008-0.306-0.046-0.444l0.001 0.010-8.934-65.644c-0.201-1.262-1.281-2.211-2.593-2.211-0.114 0-0.204 0.004-0.316 0.012l0.008-0.001zM586.231 985.435l1.962 14.347-12.628 1.723c-0.501 0.116-1.072 0.18-1.653 0.18-1.656 0-3.19-0.507-4.464-1.382l0.018 0.011c-1.472-1.151-2.475-2.864-2.668-4.82l-0.002-0.019c-0.068-0.379-0.117-0.818-0.117-1.262 0-1.605 0.524-3.108 1.419-4.311l-0.009 0.012c1.338-1.594 3.267-2.657 5.47-2.805l0.016-0.001zM582.247 956.293l2.164 15.871-13.556 1.847c-0.456 0.082-1.001 0.139-1.532 0.139-1.832 0-3.507-0.589-4.858-1.603l0.014 0.010c-1.897-1.574-3.074-3.901-3.074-6.544 0-1.786 0.561-3.443 1.51-4.822l-0.012 0.018c1.387-1.766 3.44-2.927 5.784-3.11l0.018-0.001zM498.572 946.775c-0.571-0.017-1.228-0.050-1.91-0.050-5.172 0-10.137 0.937-14.726 2.618l0.303-0.108c-4.697 1.708-8.61 4.535-11.588 8.202l-0.047 0.054c-2.819 3.61-4.593 8.15-4.774 13.11l-0.001 0.048c-0.001 0.019-0.002 0.064-0.002 0.11 0 0.571 0.244 1.083 0.626 1.454h0.001c0.394 0.395 0.953 0.647 1.574 0.652h0.001l14.499 0.429c0.113 0.007 0.238 0.012 0.363 0.012 0.681 0 1.287-0.192 1.832-0.518l-0.009 0.005c0.58-0.525 1.009-1.228 1.166-2.036l0.003-0.016c0.682-2.812 2.294-5.173 4.51-6.796l0.044-0.015c1.959-1.157 4.312-1.85 6.814-1.85 0.328 0 0.654 0.008 1.002 0.046l-0.051-0.002q11.536 0.33 11.573 13.195 0.012 2.949-0.142 8.67t-0.336 8.468q-0.778 12.85-12.303 12.495c-0.074 0.001-0.181 0.002-0.265 0.002-2.743 0-5.294-0.827-7.434-2.239l0.054 0.044c-2.107-1.781-3.61-4.249-4.127-7.050l-0.007-0.071c-0.192-0.828-0.578-1.54-1.127-2.119l0.002 0.002c-0.52-0.389-1.197-0.632-1.909-0.632-0.061 0-0.122 0.001-0.182 0.003h0.005l-14.499-0.429c-0.044-0.001-0.068-0.002-0.115-0.002-0.574 0-1.093 0.207-1.484 0.572l0.001-0.001c-0.436 0.371-0.702 0.901-0.704 1.516v0c-0.003 0.147-0.004 0.336-0.004 0.525 0 4.82 1.51 9.253 4.063 12.93l-0.054-0.070c2.81 3.892 6.57 6.943 10.954 8.842l0.178 0.065c4.772 2.099 10.321 3.36 16.166 3.433h0.019c0.84 0.071 1.838 0.121 2.82 0.121 7.591 0 14.602-2.491 20.264-6.703l-0.080 0.064c5.749-4.897 9.421-12.105 9.532-20.182v-0.011q0.188-2.86 0.374-9.177 0.186-6.229 0.147-8.977c0.016-0.439 0.048-0.947 0.048-1.458 0-7.629-3.173-14.51-8.265-19.411l-0.005-0.005c-5.862-4.791-13.438-7.708-21.7-7.708-0.365 0-0.706 0.003-1.069 0.010l0.056-0.001zM454.067 944.768l-48.143-9.097c-0.177-0.048-0.371-0.062-0.567-0.062-0.521 0-1.020 0.144-1.445 0.429l0.007-0.004c-0.576 0.372-0.973 0.958-1.088 1.652l-0.001 0.009-1.865 9.937c-0.044 0.146-0.056 0.33-0.056 0.516 0 1.282 0.938 2.357 2.157 2.591l0.010 0.002 32.491 6.128-2.47 13.044-29.491-5.556c-0.147-0.045-0.332-0.057-0.52-0.057-1.281 0-2.355 0.938-2.563 2.156l-0.001 0.010-1.723 9.12c-0.044 0.146-0.056 0.33-0.056 0.516 0 1.282 0.938 2.357 2.157 2.591l0.010 0.002 29.491 5.558-2.41 12.737-31.701-5.984c-0.178-0.048-0.373-0.062-0.571-0.062-0.521 0-1.019 0.144-1.445 0.428l0.007-0.004c-0.574 0.373-0.97 0.958-1.086 1.652l-0.001 0.009-1.865 9.937c-0.046 0.172-0.059 0.336-0.059 0.526 0 0.556 0.178 1.064 0.457 1.468l-0.003-0.005c0.388 0.574 1.005 0.971 1.707 1.094l0.010 0.001 47.359 8.92c0.146 0.046 0.33 0.059 0.516 0.059 0.528 0 1.029-0.182 1.446-0.465l-0.004 0.003c0.559-0.398 0.942-1.014 1.038-1.711l0.001-0.010 12.291-65.091c0.014-0.127 0.045-0.267 0.045-0.431 0-1.259-0.883-2.295-2.047-2.551l-0.011-0.002zM370.559 925.152l-13.618-5.544c-0.302-0.133-0.635-0.207-1.004-0.207s-0.702 0.074-1.013 0.235l0.010-0.004c-0.619 0.268-1.082 0.764-1.333 1.357l-0.004 0.011-8.33 20.437-10.77-4.393c-4.215-2.050-9.18-3.256-14.44-3.256-2.487 0-4.91 0.265-7.253 0.777l0.235-0.049c-6.437 1.985-11.446 6.886-13.514 13.122l-0.050 0.138c-1.344 2.721-2.147 5.912-2.147 9.289 0 3.628 0.903 7.052 2.503 10.017l-0.059-0.118c3.963 6.232 9.851 10.945 16.793 13.369l0.238 0.067 26.749 10.896c0.299 0.13 0.628 0.202 0.97 0.202 0.373 0 0.71-0.076 1.025-0.239l-0.009 0.004c0.634-0.305 1.129-0.822 1.356-1.461l0.004-0.012 25.013-61.34c0.115-0.268 0.177-0.587 0.177-0.938 0-1.073-0.638-1.981-1.545-2.403l-0.011-0.004zM340.070 955.066l-6.625 16.252-10.576-4.321c-2.423-0.771-4.341-2.532-5.342-4.774l-0.014-0.058c-0.302-0.873-0.456-1.854-0.456-2.882 0-1.408 0.317-2.746 0.885-3.949l-0.015 0.059c0.766-2.305 2.464-4.139 4.603-5.083l0.057-0.013c0.874-0.301 1.856-0.454 2.885-0.454 1.464 0 2.856 0.33 4.081 0.943l-0.059-0.016zM312.834 901.375l-11.332-6.895c-0.563-0.382-1.256-0.62-1.983-0.62-0.816 0-1.546 0.265-2.157 0.718l0.005-0.004-8.286 6.549-22.845-13.929 2.022-10.37c0.046-0.189 0.059-0.396 0.059-0.629 0-1.334-0.748-2.489-1.836-3.102l-0.012-0.006-11.334-6.895c-0.313-0.176-0.687-0.262-1.075-0.262-0.77 0-1.46 0.384-1.862 0.967l-0.003 0.005c-0.172 0.246-0.302 0.515-0.382 0.819l-0.004 0.014-13.748 68.254c-0.113 0.332-0.174 0.72-0.174 1.139 0 1.52 0.839 2.821 2.094 3.505l0.013 0.007 13.608 8.284c0.634 0.443 1.412 0.704 2.276 0.704 1.076 0 2.043-0.431 2.754-1.101l-0.001 0.001 54.368-43.486c0.209-0.203 0.398-0.449 0.562-0.71l0.005-0.010c0.176-0.313 0.262-0.687 0.262-1.075 0-0.77-0.384-1.46-0.967-1.862l-0.005-0.003zM256.156 929.462l5.779-26.98 15.522 9.469zM245.703 858.582l-24.526-21.258c-4.785-4.73-11.207-7.841-18.339-8.406l-0.111-0.004c-6.348 0.005-11.972 2.991-15.594 7.631l-0.044 0.051c-2.175 2.435-3.646 5.553-4.080 8.993l-0.005 0.075c-0.112 0.697-0.173 1.484-0.173 2.306 0 2.494 0.562 4.859 1.544 6.996l-0.050-0.11c-1.073-0.246-2.293-0.381-3.557-0.381-1.484 0-2.942 0.194-4.33 0.567l0.121-0.017c-3.047 0.755-5.613 2.415-7.503 4.667l-0.012 0.015c-3.262 3.361-5.286 7.948-5.286 12.998 0 0.899 0.064 1.788 0.189 2.665l-0.007-0.11q1.323 8.154 11.098 16.634l23.829 20.645c0.434 0.391 1.008 0.638 1.642 0.638 0.081 0 0.184-0.003 0.264-0.009l-0.007 0.001c0.713-0.074 1.341-0.439 1.776-0.956l0.002-0.003 43.372-50.064c0.375-0.447 0.589-1.026 0.589-1.661 0-0.766-0.326-1.459-0.845-1.926l-0.001-0.001zM204.873 880.312l-9.489 10.954-9.633-8.35c-1.671-1.267-2.847-3.137-3.125-5.297l-0.003-0.049c-0.005-0.129-0.009-0.271-0.009-0.437 0-1.846 0.711-3.516 1.895-4.773l-0.002 0.002c1.207-1.511 2.986-2.496 4.984-2.675l0.017-0.001c0.062-0.001 0.131-0.002 0.2-0.002 2.158 0 4.095 0.876 5.532 2.278v0zM224.107 858.093l-10.498 12.107-10.329-8.965c-1.737-1.356-2.922-3.392-3.122-5.72l-0.001-0.044c-0.002-0.071-0.002-0.174-0.002-0.254 0-4.322 3.238-7.886 7.402-8.401l0.049-0.003c0.139-0.006 0.317-0.009 0.495-0.009 2.219 0 4.214 0.888 5.679 2.311l-0.001-0.001zM192.354 810.513l-8.862-10.816c-0.429-0.529-1.029-0.904-1.731-1.010l-0.009-0.001c-0.112-0.010-0.235-0.016-0.335-0.016-0.617 0-1.155 0.236-1.586 0.589l0.002-0.001-19.343 15.858-15.279-18.638 19.343-15.856c0.526-0.426 0.89-1.032 0.943-1.739v-0.005c0.003-0.058 0.004-0.122 0.004-0.186 0-0.656-0.249-1.276-0.645-1.735l0.002 0.002-8.798-10.744c-0.429-0.528-1.029-0.903-1.73-1.010l-0.009-0.001c-0.109-0.009-0.204-0.014-0.324-0.014-0.618 0-1.156 0.236-1.586 0.589l0.002-0.001-51.211 42.009c-0.617 0.492-0.975 1.216-0.975 2.043 0 0.642 0.242 1.227 0.627 1.702l-0.002-0.002 8.798 10.744c0.492 0.617 1.216 0.975 2.043 0.975 0.642 0 1.227-0.242 1.702-0.627l-0.002 0.002 18.71-15.343 15.279 18.638-18.71 15.343c-0.617 0.493-0.975 1.217-0.975 2.045 0 0.642 0.241 1.225 0.625 1.701l-0.002-0.002 8.864 10.818c0.426 0.526 1.032 0.89 1.739 0.941h0.004c0.059 0.003 0.125 0.004 0.191 0.004 0.655 0 1.273-0.249 1.73-0.646l-0.002 0.002 51.213-42.009c0.589-0.449 0.971-1.155 0.971-1.964 0-0.631-0.243-1.204-0.63-1.642l0.001 0.001zM133.117 726.77c-3.701-7.373-9.759-13.098-17.186-16.256l-0.235-0.077c-2.497-0.839-5.397-1.335-8.394-1.335-5.165 0-9.998 1.455-14.117 3.959l0.122-0.066q-5.078 2.66-7.721 4.157-2.558 1.463-7.626 4.574c-6.875 3.742-11.888 10.18-13.612 17.847l-0.045 0.184c-0.131 1.209-0.202 2.611-0.202 4.024 0 15.662 9.187 29.171 22.482 35.423l0.245 0.111c2.543 0.88 5.472 1.387 8.521 1.387 5.157 0 9.984-1.453 14.074-3.953l-0.121 0.066q2.62-1.385 7.768-4.312t7.578-4.44c6.864-3.705 11.847-10.124 13.577-17.771l0.045-0.184c0.199-1.405 0.32-3.041 0.32-4.694 0-6.94-2.048-13.389-5.594-18.797l0.075 0.13zM119.809 734.345c1.138 1.738 1.799 3.886 1.799 6.181 0 1.017-0.13 1.992-0.381 2.937l0.011-0.074c-1.269 3.424-3.701 6.159-6.816 7.765l-0.073 0.047q-2.53 1.541-7.316 4.273-4.704 2.674-7.244 4.005c-2.154 1.385-4.77 2.182-7.578 2.182-0.944 0-1.851-0.081-2.739-0.261l0.080 0.009c-3.106-0.936-5.597-3.044-7.004-5.795l-0.019-0.064c-1.098-1.72-1.772-3.822-1.772-6.067 0-1.021 0.132-2.022 0.387-2.947l-0.012 0.074c1.269-3.424 3.7-6.158 6.814-7.765l0.073-0.047q4.884-3 7.079-4.265t7.461-4.013c2.155-1.385 4.774-2.183 7.583-2.183 0.942 0 1.847 0.081 2.734 0.259l-0.080-0.009c3.065 0.9 5.544 2.988 6.948 5.716l0.019 0.064zM429.656 742.625l129.259 50.047c2.111 0.82 4.573 1.283 7.128 1.283 8.523 0 15.805-5.226 18.85-12.659l0.054-0.133 22.865-59.076 61.146 23.68c2.112 0.821 4.576 1.285 7.132 1.285 8.521 0 15.803-5.227 18.846-12.659l0.054-0.133 40.067-103.548c0.876-2.113 1.382-4.582 1.382-7.149 0-2.982-0.682-5.795-1.862-8.325l0.055 0.121c-2.282-5.1-6.444-9.025-11.598-10.892l-0.136-0.052-60.448-23.414 96.329-248.786c0.821-2.112 1.285-4.576 1.285-7.132 0-8.521-5.227-15.803-12.659-18.846l-144.679-56.021c-3.929-1.714-8.479-2.694-13.292-2.694-6.254 0-12.117 1.704-17.174 4.651l0.147-0.078-296.217 180.976c-7.27 4.201-12.864 10.632-15.907 18.344l-0.078 0.25-38.468 99.391c-0.821 2.112-1.284 4.575-1.284 7.132 0 8.522 5.226 15.804 12.658 18.849l207.915 80.491-22.867 59.078c-0.82 2.112-1.283 4.574-1.283 7.129 0 8.522 5.227 15.805 12.66 18.849l0.133 0.054zM536.279 425.911l-38.734 100.057-72.968-28.259z"></path>
</svg>
